<svg id="Layer_1" data-name="Layer 1" xmlns="http://www.w3.org/2000/svg" viewBox="0 0 363.368 440.175"><defs><style>.cls-1{fill:#fff;}.cls-2{fill:#dd0225;}.cls-3{fill:#4f4f4f;}.cls-4{fill:#525252;}.cls-5{fill:#505050;}.cls-6{fill:#c61731;}.cls-7{fill:#ca1a36;}.cls-8{fill:#c01832;}.cls-9{fill:#c61c37;}.cls-10{fill:#bf1b34;}.cls-11{fill:#cd1e39;}.cls-12{fill:#c41934;}.cls-13{fill:#8f2339;}.cls-14{fill:#d10728;}</style></defs><path class="cls-1" d="M152.905,236.835a23.642,23.642,0,0,0,3.323.018c3.019-.4,4.169.77,4.007,3.859-.213,4.093-.052,8.205-.052,12.309V264.9h4.562V237.063c2.632-.134,4.936-.251,7.915-.623.066-1.167.132-2.334.205-3.618H151.494a15.686,15.686,0,0,0,1.411,4.013" transform="translate(-74.316 -35.913)"/><path class="cls-1" d="M267.423,85.409c1.643.219,3.28.519,4.931.643a114.044,114.044,0,0,1,28.938,5.756q6.194,2.145,12.33,4.457a87.75,87.75,0,0,1,24.186,13.386c6.427,5.158,12.48,10.781,18.142,15.715,9.5-9.182,19.417-18.716,29.277-28.3,4.029-3.919,3.939-3.986.046-8a165.734,165.734,0,0,0-29.064-23.715c-5.115-3.31-10.483-6.247-15.855-9.134a111.005,111.005,0,0,0-12.586-5.992c-6.365-2.447-12.94-4.34-19.355-6.667a126.827,126.827,0,0,0-34.5-6.91c-14.368-1-28.84-1.24-43.282,1.034-17.01,2.68-33.6,6.518-49.019,14.314-9.657,4.881-19.548,9.562-28.418,15.663-9.309,6.405-17.612,14.3-26.179,21.744-3.639,3.163-3.286,4.02.258,7.468,5.879,5.721,11.59,11.615,17.372,17.435l11.931,12.01c10.08-12.345,22.273-20.913,35.877-27.516a137.8,137.8,0,0,1,39.181-11.89c4.449-.694,8.928-1.2,14.008-1.7,7.113-.019,14.226-.039,21.776.208" transform="translate(-74.316 -35.913)"/><path class="cls-1" d="M437.587,233.788c.008-8.314-.145-16.631.062-24.94a125.582,125.582,0,0,0-6.08-40.769,257.867,257.867,0,0,0-10.761-28.215c-3.388-7.581-7.855-14.68-11.852-21.988-1.056-1.932-2.5-2.039-4.065-.682-2.34,2.028-4.722,4.028-6.889,6.234-4.722,4.806-9.278,9.774-13.978,14.6-4.509,4.633-9.167,9.121-13.607,13.817a3.444,3.444,0,0,0-.231,3.106c2.159,4.41,5.021,8.527,6.752,13.083a157.776,157.776,0,0,1,8.707,30.822c2.1,12.978,2.49,25.876.1,38.761-1.39,7.48-2.814,15.09-5.5,22.158a178.306,178.306,0,0,1-12.19,25.427,124.638,124.638,0,0,1-14.267,20.165c-7.446,8.461-15.77,16.152-23.754,24.137q-17.213,17.214-34.472,34.38-17.607,17.611-35.138,35.3c-3.608,3.651-4.5,3.736-8.135.091q-20.025-20.046-40.082-40.061c-10.889-10.84-22.124-21.349-32.666-32.516-8.679-9.193-18.811-17.063-25.91-27.709-4.471-6.7-8.955-13.423-12.977-20.4a115.56,115.56,0,0,1-7.365-15.667,95.181,95.181,0,0,1-4.473-14.881c-1.212-5.719-1.666-11.594-2.587-17.379-1.7-10.659-.714-21.246.92-31.78.93-5.992,2.222-11.95,3.737-17.823a78.287,78.287,0,0,1,4.323-12.35c2.031-4.54,4.63-8.824,6.914-13.255.994-1.928.948-3.452-.958-5.238-5.093-4.775-9.779-9.98-14.744-14.895-5.745-5.687-11.706-11.158-17.389-16.9-2.471-2.5-4.116-2.669-5.734.343-4.479,8.339-9.069,16.627-13.239,25.12a135.212,135.212,0,0,0-12.046,36.29A209.633,209.633,0,0,0,74.344,213.9c-.328,24.243,2.111,47.959,11.942,70.408,3.729,8.515,8.082,16.755,12.026,25.178,6.348,13.56,15.836,24.917,26.091,35.465,22.941,23.6,46.433,46.661,69.668,69.975q29.682,29.783,59.287,59.643c1.85,1.863,3.834,2.1,5.674.24,5.412-5.481,10.7-11.081,16.073-16.6,9-9.253,17.951-18.549,27.054-27.7,5.561-5.589,11.485-10.818,17.038-16.415,11.706-11.8,23.213-23.8,34.927-35.592,5.468-5.5,11.382-10.565,16.818-16.1,8.2-8.348,16.13-16.962,24.228-25.411A120.1,120.1,0,0,0,413.3,311.723c7.591-13.734,14.46-27.833,18.467-43.184,2.93-11.229,5.538-22.453,5.816-34.751" transform="translate(-74.316 -35.913)"/><path class="cls-1" d="M161.425,202.041c-.441,6.388-3.818,11.521-8.271,12.573-4.114.971-5.911,3.175-6.37,7.812a20.289,20.289,0,0,0,20.273-11.235c1-2.138,2.259-3.116,4.8-2.79a63.15,63.15,0,0,0,8,.047q82.366-.007,164.733-.01h3.939V172.66H341.4V200.6H297.734V172.7h-6.889v28.167H247.786V172.76h-7v27.757h-7.4v-27.9h-6.62v27.926h-7.935v-27.8h-6.978v27.775h-43.34v-27.9h-7.086v29.421" transform="translate(-74.316 -35.913)"/><path class="cls-1" d="M282.7,306.8c.415-3.13-1.021-3.969-4.045-3.942-14.685.131-29.371.051-44.058.046h-4.7c0,10.565-.1,20.654.06,30.738a11.907,11.907,0,0,0,3.6,8.589c6.691,6.648,13.137,13.542,19.7,20.318,2.089,2.156,3.658,2.029,5.859-.253,6.695-6.941,13.309-13.966,20.178-20.731a10.572,10.572,0,0,0,3.443-8.12c-.056-8.678-.036-17.356-.046-26.645" transform="translate(-74.316 -35.913)"/><path class="cls-1" d="M299.535,251.035v14.071h21.471v-4.395H304.235V250.59h15c-.107-1.459-.186-2.526-.289-3.936H303.906c0-2.439.14-4.538-.036-6.612-.211-2.487.7-3.334,3.207-3.237,4.539.175,9.089.049,13.781.049v-4.029H299.541c0,6,0,11.77-.006,18.21" transform="translate(-74.316 -35.913)"/><path class="cls-1" d="M278.707,250.777h7.216v14.166h3.944V232.858h-4.049c0,3.895.083,7.55-.058,11.195-.035.9-.775,2.509-1.235,2.525-5.17.181-10.349.115-15.8.115V232.835h-4.078v32.33l4.409-.264V250.777h9.649" transform="translate(-74.316 -35.913)"/><path class="cls-1" d="M250.73,247.964c-2.261-1.1-4.529-2.183-6.779-3.305-1.926-.96-3.478-2.466-2.7-4.668.7-1.98,2.254-3.594,4.79-3.264,2.868.372,5.73.8,8.794,1.23.258-.735.64-1.822,1.019-2.9a33.978,33.978,0,0,0-5.1-2.075,21.3,21.3,0,0,0-5.288-.36c-3.837.09-8.01,3.366-8.558,6.572-.812,4.755.856,7.632,5.457,9.714a33.358,33.358,0,0,1,6.98,3.669,6.071,6.071,0,0,1,2.217,4.577,6.174,6.174,0,0,1-3.236,3.951c-3.9,1.839-7.463-.269-11.143-1.853l-2.073,2.913a17.236,17.236,0,0,0,14.4,2.778,8.676,8.676,0,0,0,6.98-7.73c.344-3.964-1.567-7.176-5.758-9.245" transform="translate(-74.316 -35.913)"/><path class="cls-1" d="M333.065,160.444h6.1v-8h-8.288a38.7,38.7,0,0,0,2.187,8" transform="translate(-74.316 -35.913)"/><path class="cls-1" d="M341.233,156.11v4.182h7.786v-7.919h-7.8c0,1.152,0,2.122.009,3.737" transform="translate(-74.316 -35.913)"/><path class="cls-2" d="M437.571,234.108c-.262,11.978-2.87,23.2-5.8,34.431-4.007,15.351-10.876,29.45-18.467,43.184a120.1,120.1,0,0,1-18.134,25.266c-8.1,8.449-16.028,17.063-24.228,25.411-5.436,5.533-11.35,10.6-16.818,16.1C342.41,390.291,330.9,402.289,319.2,414.09c-5.553,5.6-11.477,10.826-17.038,16.415-9.1,9.147-18.057,18.443-27.054,27.7-5.37,5.522-10.661,11.122-16.073,16.6-1.84,1.864-3.824,1.623-5.674-.24q-29.631-29.834-59.287-59.643c-23.235-23.314-46.727-46.376-69.668-69.975-10.255-10.548-19.743-21.905-26.091-35.465-3.944-8.423-8.3-16.663-12.026-25.178-9.831-22.449-12.27-46.165-11.942-70.408a209.633,209.633,0,0,1,3.668-33.723,135.212,135.212,0,0,1,12.046-36.29c4.17-8.493,8.76-16.781,13.239-25.12,1.618-3.012,3.263-2.841,5.734-.343,5.683,5.746,11.644,11.217,17.389,16.9,4.965,4.915,9.651,10.12,14.744,14.895,1.906,1.786,1.952,3.31.958,5.238-2.284,4.431-4.883,8.715-6.914,13.255a78.287,78.287,0,0,0-4.323,12.35c-1.515,5.873-2.807,11.831-3.737,17.823-1.634,10.534-2.617,21.121-.92,31.78.921,5.785,1.375,11.66,2.587,17.379a95.181,95.181,0,0,0,4.473,14.881,115.56,115.56,0,0,0,7.365,15.667c4.022,6.975,8.506,13.693,12.977,20.4,7.1,10.646,17.231,18.516,25.91,27.709,10.542,11.167,21.777,21.676,32.666,32.516q20.081,19.99,40.082,40.061c3.64,3.645,4.527,3.56,8.135-.091q17.5-17.714,35.138-35.3,17.209-17.217,34.472-34.38c7.984-7.985,16.308-15.676,23.754-24.137A124.638,124.638,0,0,0,368.054,285.2a178.306,178.306,0,0,0,12.19-25.427c2.683-7.068,4.107-14.678,5.5-22.158,2.394-12.885,2.006-25.783-.1-38.761a157.776,157.776,0,0,0-8.707-30.822c-1.731-4.556-4.593-8.673-6.752-13.083a3.444,3.444,0,0,1,.231-3.106c4.44-4.7,9.1-9.184,13.607-13.817,4.7-4.828,9.256-9.8,13.978-14.6,2.167-2.206,4.549-4.206,6.889-6.234,1.564-1.357,3.009-1.25,4.065.682,4,7.308,8.464,14.407,11.852,21.988a257.867,257.867,0,0,1,10.761,28.215,125.582,125.582,0,0,1,6.08,40.769C437.442,217.157,437.6,225.474,437.571,234.108Z" transform="translate(-74.316 -35.913)"/><path class="cls-3" d="M245.032,85.11c-4.465.593-8.944,1.1-13.393,1.8A137.8,137.8,0,0,0,192.458,98.8c-13.6,6.6-25.8,15.171-35.877,27.516L144.65,114.3c-5.782-5.82-11.493-11.714-17.372-17.435-3.544-3.448-3.9-4.3-.258-7.468,8.567-7.445,16.87-15.339,26.179-21.744,8.87-6.1,18.761-10.782,28.418-15.663,15.422-7.8,32.009-11.634,49.019-14.314,14.442-2.274,28.914-2.036,43.282-1.034a126.827,126.827,0,0,1,34.5,6.91c6.415,2.327,12.99,4.22,19.355,6.667a111.005,111.005,0,0,1,12.586,5.992c5.372,2.887,10.74,5.824,15.855,9.134a165.734,165.734,0,0,1,29.064,23.715c3.893,4.014,3.983,4.081-.046,8-9.86,9.589-19.773,19.123-29.277,28.3-5.662-4.934-11.715-10.557-18.142-15.715a87.75,87.75,0,0,0-24.186-13.386q-6.132-2.318-12.33-4.457a114.044,114.044,0,0,0-28.938-5.756,24.6,24.6,0,0,1-5.3-1.018c-7.256-.484-14.147-.6-21.039-.668C245.692,84.363,245.361,84.851,245.032,85.11Z" transform="translate(-74.316 -35.913)"/><path class="cls-4" d="M161.425,201.727V172.62h7.086v27.9h43.34V172.741h6.978v27.8h7.935V172.62h6.62v27.9h7.4V172.76h7v28.106h43.059V172.7h6.889V200.6H341.4V172.66h7.136v35.778h-3.939q-82.367,0-164.733.01a63.15,63.15,0,0,1-8-.047c-2.543-.326-3.8.652-4.8,2.79a20.289,20.289,0,0,1-20.273,11.235c.459-4.637,2.256-6.841,6.37-7.812C157.607,213.562,160.984,208.429,161.425,201.727Z" transform="translate(-74.316 -35.913)"/><path class="cls-5" d="M282.7,307.108c.01,8.984-.01,17.662.046,26.34a10.572,10.572,0,0,1-3.443,8.12c-6.869,6.765-13.483,13.79-20.178,20.731-2.2,2.282-3.77,2.409-5.859.253-6.565-6.776-13.011-13.67-19.7-20.318a11.907,11.907,0,0,1-3.6-8.589c-.164-10.084-.06-20.173-.06-30.738h4.7c14.687,0,29.373.085,44.058-.046C281.675,302.834,283.111,303.673,282.7,307.108Z" transform="translate(-74.316 -35.913)"/><path class="cls-6" d="M227,245.455c-.785,1.018-1.492,1.8-2.373,2.769a27.857,27.857,0,0,1,3.784,3.213c3.73,4.528.674,12.5-5.206,13.256-4.38.562-8.837.519-13.582.762V232.174c4.646.539,9.452.452,13.834,1.772,5.129,1.546,6.313,6.385,3.543,11.509m-6.091-8.1s-.01-.041-.115-.559a23.279,23.279,0,0,0-4.66-.7c-.855.034-2.384.985-2.391,1.538a32.624,32.624,0,0,0,1.121,9.028c1.315.013,2.631.075,3.944.029,3.515-.121,5.13-1.958,4.744-5.435-.095-.856-.439-1.683-.706-2.99-.632-.306-1.263-.611-1.937-.915M218.548,260.9c1.108-.083,2.449.2,3.269-.334,1.249-.806,2.693-2.031,3.024-3.339s-.26-3.91-1.077-4.207a39.486,39.486,0,0,0-8.61-1.609c-.357-.044-1.19.989-1.22,1.554-.135,2.515-.058,5.042-.058,7.922C215.528,260.887,216.733,260.887,218.548,260.9Z" transform="translate(-74.316 -35.913)"/><path class="cls-7" d="M349.347,260.718c.82,1.412,1.614,2.617,2.238,3.566-5.6,2.49-6.486-2.635-8.388-5.7-3.307-5.331-3.556-5.69-9.207-4.871v11.313h-4.5V232.038c4.944.637,9.953.479,14.353,2.039,6.332,2.245,8.093,10.826,3.5,15.831-2.305,2.513-2.457,4.184-.312,6.6a19.154,19.154,0,0,1,2.311,4.208m-10.227-23.57a12.6,12.6,0,0,0-3.309.087c-.721.206-1.739,1.073-1.774,1.693-.18,3.172-.083,6.36-.083,9.9,2.052,0,3.689.068,5.32-.013,3.891-.194,5.724-1.857,5.9-5.238C345.356,239.916,343.441,237.685,339.12,237.148Z" transform="translate(-74.316 -35.913)"/><path class="cls-8" d="M299.538,250.7c0-6.106,0-11.877,0-17.876h21.317v4.029c-4.692,0-9.242.126-13.781-.049-2.509-.1-3.418.75-3.207,3.237.176,2.074.036,4.173.036,6.612h15.037c.1,1.41.182,2.477.289,3.936h-15v10.121h16.771v4.395H299.535C299.535,260.329,299.535,255.682,299.538,250.7Z" transform="translate(-74.316 -35.913)"/><path class="cls-9" d="M278.379,250.777h-9.321V264.9l-4.409.264v-32.33h4.078v13.858c5.449,0,10.628.066,15.8-.115.46-.016,1.2-1.63,1.235-2.525.141-3.645.058-7.3.058-11.195h4.049v32.085h-3.944V250.777Z" transform="translate(-74.316 -35.913)"/><path class="cls-6" d="M197.4,263.575c-.253-.655-.471-1.049-.587-1.47-1.389-5.059-1.675-5.292-6.645-5.293a10.413,10.413,0,0,1-1.334,0c-4.348-.557-7.8-.006-8.617,5.4-.361,2.375-2.205,3.779-5.457,2.665q6.824-16.005,13.626-31.964l1.133.119q6.741,15.815,13.48,31.628-.318.513-.635,1.026a49.09,49.09,0,0,1-4.964-2.108m-6.76-17.582-2.122-4.142c-1.633,4.179-2.921,7.473-4.325,11.068h8.923C192.226,250.524,191.481,248.512,190.637,245.993Z" transform="translate(-74.316 -35.913)"/><path class="cls-10" d="M250.94,248.1c3.981,1.931,5.892,5.143,5.548,9.107a8.676,8.676,0,0,1-6.98,7.73,17.236,17.236,0,0,1-14.4-2.778l2.073-2.913c3.68,1.584,7.24,3.692,11.143,1.853a6.174,6.174,0,0,0,3.236-3.951,6.071,6.071,0,0,0-2.217-4.577,33.358,33.358,0,0,0-6.98-3.669c-4.6-2.082-6.269-4.959-5.457-9.714.548-3.206,4.721-6.482,8.558-6.572a21.3,21.3,0,0,1,5.288.36,33.978,33.978,0,0,1,5.1,2.075c-.379,1.082-.761,2.169-1.019,2.9-3.064-.431-5.926-.858-8.794-1.23-2.536-.33-4.094,1.284-4.79,3.264-.775,2.2.777,3.708,2.7,4.668C246.2,245.781,248.469,246.864,250.94,248.1Z" transform="translate(-74.316 -35.913)"/><path class="cls-11" d="M171.986,236.7l-7.241.368V264.9h-4.562v-11.88c0-4.1-.161-8.216.052-12.309.162-3.089-.988-4.255-4.007-3.859a13.86,13.86,0,0,1-3.273-.12c1.955-.1,3.859-.1,5.763-.1,0-.268,0-.536-.007-.8h-5.693c.366-1.325,1.02-2.382,1.7-2.4,5.311-.135,10.628-.108,15.94,0,.464.009.911.931,1.365,1.429-.458.377-.894,1.043-1.379,1.081-1.729.132-3.474.052-5.213.052l-.006.708Z" transform="translate(-74.316 -35.913)"/><path class="cls-12" d="M229.075,154.488v5.763h-7.809a47.538,47.538,0,0,1-.016-7.462,18.388,18.388,0,0,1,5.71-.321C227.753,152.6,228.375,153.782,229.075,154.488Z" transform="translate(-74.316 -35.913)"/><path class="cls-8" d="M332.76,160.405a74.167,74.167,0,0,1-1.882-7.957h8.288v8C337.01,160.444,335.038,160.444,332.76,160.405Z" transform="translate(-74.316 -35.913)"/><path class="cls-8" d="M341.229,155.788c0-1.293,0-2.263,0-3.415h7.8v7.919h-7.786C341.233,158.889,341.233,157.5,341.229,155.788Z" transform="translate(-74.316 -35.913)"/><path class="cls-13" d="M172.323,236.568c-2.524.127-4.712.127-6.9.127l.006-.708c1.739,0,3.484.08,5.213-.052.485-.038.921-.7,1.379-1.081-.454-.5-.9-1.42-1.365-1.429-5.312-.1-10.629-.131-15.94,0-.679.017-1.333,1.074-1.7,2.4h5.693c0,.267,0,.535.007.8-1.9,0-3.808,0-5.98.017a18.992,18.992,0,0,1-1.244-3.826h21.371A14.752,14.752,0,0,1,172.323,236.568Z" transform="translate(-74.316 -35.913)"/><path class="cls-3" d="M245.34,85.156c.021-.305.352-.793.678-.79,6.892.065,13.783.184,20.821.535C259.873,85.162,252.76,85.182,245.34,85.156Z" transform="translate(-74.316 -35.913)"/><path class="cls-11" d="M222.866,238.5a4.552,4.552,0,0,1-1.821-.97A4.558,4.558,0,0,1,222.866,238.5Z" transform="translate(-74.316 -35.913)"/><path class="cls-2" d="M287.081,215.791c-.648.1-1.124,1.371-1.685,2.4,0,.086.007.165.011.25l-.017.039c.071,1.384.143,2.767.217,4.205H293.1V215.69A42.415,42.415,0,0,0,287.081,215.791Z" transform="translate(-74.316 -35.913)"/><path class="cls-2" d="M225.636,142.561v7.844c.931,0,1.861.008,3.066-.039a52.083,52.083,0,0,0-2.719-6.346c1.22,2.566,2.107,4.43,3.2,6.331a1.53,1.53,0,0,0,1.119-.253,5.358,5.358,0,0,0,2.6.213,40.294,40.294,0,0,0,.5-7.75Z" transform="translate(-74.316 -35.913)"/><path class="cls-14" d="M238.616,152.425c-2.7-.034-5.1-.034-7.747-.034,0,2.762,0,5.087.172,7.645,2.681.233,5.189.233,7.88.233A65.9,65.9,0,0,0,238.616,152.425Zm-3.363.64a7.271,7.271,0,0,1,.762-.007c-.148,0-.295,0-.461.011-4.337.113-4.976,1.468-3.3,6.605C230.578,154.537,231.217,153.182,235.253,153.065Z" transform="translate(-74.316 -35.913)"/></svg>