<?xml version="1.0" encoding="utf-8"?>
<!-- Generator: Adobe Illustrator 25.0.1, SVG Export Plug-In . SVG Version: 6.00 Build 0)  -->
<svg version="1.1" id="Layer_1" xmlns="http://www.w3.org/2000/svg" xmlns:xlink="http://www.w3.org/1999/xlink" x="0px" y="0px"
	 viewBox="0 0 1024 451" style="enable-background:new 0 0 1024 451;" xml:space="preserve">
<style type="text/css">
	.st0{fill:#DD0225;}
	.st1{fill:#4F4F4F;}
	.st2{fill:#515151;}
	.st3{fill:#505050;}
	.st4{fill:#525252;}
	.st5{fill:#C50C2B;}
	.st6{fill:#C40D2A;}
	.st7{fill:#C70B2A;}
	.st8{fill:#D20728;}
	.st9{fill:#CC0A29;}
	.st10{fill:#CF0828;}
	.st11{fill:#CA0B29;}
	.st12{fill:#C20E2B;}
	.st13{fill:#C41D37;}
	.st14{fill:#BB1A33;}
	.st15{fill:#C01F38;}
	.st16{fill:#A71831;}
	.st17{fill:#BE1C34;}
	.st18{fill:#BC1F37;}
	.st19{fill:#D60626;}
	.st20{fill:#C0213A;}
	.st21{fill:#565656;}
	.st22{fill:#AF2A3F;}
	.st23{fill:#F8CDD3;}
	.st24{fill:#971F36;}
	.st25{fill:#A21A33;}
	.st26{fill:#FDDEE2;}
	.st27{fill:#CD0C28;}
	.st28{fill:#BD374A;}
	.st29{fill:#F5A9B2;}
</style>
<path class="st0" d="M807,418.7c-0.3-0.3-0.6-0.7-0.8-1.1c-2-2.1-3.8-3.8-5.7-5.5c0,0-0.1,0-0.1-0.3c-0.4-0.4-0.8-0.7-1.3-1
	c0,0,0,0-0.1-0.2c-0.2-0.4-0.4-0.5-0.6-0.5c0,0-0.1,0.1-0.1-0.2c-8.8-9-17.5-17.8-26.3-26.5c-0.1-0.2-0.1-0.3-0.3-0.5
	c-3.4-3.4-6.6-6.5-9.8-9.6c-0.1-0.1-0.2-0.2-0.3-0.4c-0.4-0.3-0.9-0.6-1.4-0.9c0,0-0.2,0.1-0.1-0.2c-2.9-3.2-5.8-6.1-8.8-9
	c0-0.1-0.1-0.2-0.1-0.2c-2-2-4-3.9-5.9-5.8c0-0.1-0.1-0.2-0.1-0.2c-2-2.1-3.9-3.9-5.9-5.8c0-0.1-0.1-0.1-0.1-0.2
	c-1.5-1.5-2.9-2.8-4.3-4c0,0-0.1,0-0.1-0.2c-6-6.1-12-12-17.9-17.8c0,0-0.1,0-0.1-0.2c-1.2-1.3-2.4-2.4-3.5-3.5
	c0-0.1-0.1-0.2-0.1-0.2c-1.8-1.9-3.6-3.7-5.3-5.4c-0.1-0.2-0.2-0.3-0.3-0.4c-3.1-3.3-6-6.3-8.9-9.3c-0.1-0.2-0.2-0.4-0.5-0.9
	c-0.7-0.7-1.4-1.3-2.1-1.9c-0.1-0.2-0.1-0.4-0.1-0.7c-1.6-2-3.1-3.7-4.6-5.3c0,0,0,0-0.1-0.2c-0.2-0.2-0.4-0.4-0.6-0.4
	c0-0.1,0-0.1,0-0.2c-0.2-0.2-0.4-0.4-0.6-0.5c0,0,0,0,0-0.2c-0.6-0.9-1.2-1.7-1.9-2.5c0,0-0.1,0,0-0.2c-0.6-0.8-1.3-1.5-2.1-2.2
	c0-0.1,0.1-0.3,0.1-0.4c-0.7-1.7-1.4-3-2-4.6c-0.6-1.1-1.3-2.1-2-3.1c0,0,0,0,0-0.1c-0.2-0.2-0.4-0.4-0.6-0.6c0,0,0,0,0-0.2
	c-0.4-0.8-0.9-1.6-1.5-2.4c0,0,0.1,0,0.1-0.2c-2.6-5.8-5.2-11.3-8-16.8c-4.6-9.3-8.7-18.8-11-29c-0.8-3.5-1.4-7.1-2-10.7
	c-1.3-7.2-3.2-14.3-3.6-21.5c-1-22-0.5-44.1,5.6-65.5c2-6.5,4.5-12.9,7.4-19.1c3.4-7.7,7.2-15.1,10.8-22.7c0.3-1,0.6-2.1,0.7-3.1
	c0,0,0,0.1,0.2,0.1c1.4-1.3,2.6-2.8,3.6-4.3c1.1-1.9,2.1-1.9,3.5-0.4c3.9,3.9,7.8,7.7,11.8,11.4c1.6,1.3,3.3,2.4,5.1,3.4
	c0,0-0.1,0-0.1,0.2c3,3.6,6.2,6.9,9.1,10.5c3,3.7,8.9,5.7,6.9,12.2c0,0,0-0.1-0.2,0c-1.1,1-2.1,2.1-2.8,3.3
	c-4.6,9.8-9,19.7-10.5,30.5c-1.2,9.1-2.5,18.2-3.1,27.3c-0.3,4.2,1.1,8.6,1.1,12.9c0.1,13.2,3.8,25.7,9,37.6
	c4.3,9.8,10.4,18.7,15.8,28c0.5,0.9,1.8,1.4,2.7,2c0,0-0.1,0-0.1,0.2c0.9,1.8,1.6,3.6,2.8,4.9c5.1,5.3,10.4,10.4,15.6,15.7
	c5.6,5.7,11,11.6,16.6,17.2c8.1,8.1,16.3,16.1,24.4,24.2c13.3,13.4,26.4,27,39.9,40.2c1.3,1.3,4.2,1.3,6.4,1.3
	c1.7-0.1,3-1.5,2.5-3.6c0,0,0,0.1,0.2,0.1c0.7-0.6,1.2-1.3,1.8-2.1c0,0,0,0.1,0.2,0.1c0.7-0.6,1.3-1.3,1.8-2.1c0,0,0,0.1,0.2,0.1
	c1.8-1,4.2-1.3,3.8-4c0,0,0,0.1,0.2,0.1c2.7-0.3,3.5-2,3.7-4.1c0,0,0,0.1,0.2,0.1c3.5-2,6.9-3.9,7.8-8.1c0,0,0,0.1,0.2,0.1
	c0.6-0.6,1.2-1.3,1.8-2.1c0,0,0,0.1,0.2,0.1c1.8-1,4.2-1.3,3.8-4c0,0,0,0.1,0.3,0.1c2.5-0.4,3.8-1.7,3.7-4.1c0,0,0,0.1,0.2,0.1
	c2.1-2,4-4,5.9-6c0,0,0.1-0.1,0.5-0.1c2.8-1.3,5.3-2.7,5.4-6c0,0,0,0.1,0.2,0.1c3.1-1.1,5.3-2.8,5.8-6.1c0,0,0,0.1,0.2,0.1
	c1.4-1.3,2.6-2.7,3.8-4.1c0,0,0,0.1,0.2,0.1c0.7-0.6,1.2-1.3,1.8-2.1c0,0,0,0.1,0.2,0.1c0.7-0.6,1.3-1.3,1.8-2c0,0,0,0.1,0.2,0.1
	c0.7-0.6,1.2-1.3,1.8-2.1c0,0,0,0.1,0.2,0.1c2.1-2,3.9-4.1,5.8-6.1c0,0,0,0.1,0.2,0.1c3-0.3,4.3-2,4.4-4.7c0,0,0,0.1,0.2,0.1
	c0.4-0.4,0.8-0.9,1.1-1.4c0,0,0,0.1,0.2,0.1c3-1.2,5.1-3,5.8-6.1c0,0,0,0.1,0.2,0.1c1.4-1.4,2.6-2.7,3.8-4.1c0,0,0,0.1,0.2,0.1
	c0.7-0.6,1.3-1.3,1.8-2.1c0,0,0,0.1,0.2,0.1c1.9-1,4.2-1.3,3.8-4.1c0,0,0,0.1,0.2,0.1c0.7-0.6,1.3-1.3,1.8-2.1c0,0,0,0.1,0.2,0.1
	c0.7-0.6,1.3-1.3,1.8-2.1c0,0,0,0.1,0.2,0.1c2.3-0.6,3.7-1.8,3.7-4.1c0,0,0,0.1,0.2,0.1c0.7-0.8,1.3-1.7,1.9-2.6c0,0,0,0,0.2,0
	c0.5-0.1,1-0.3,1.4-0.6c7.1-7.7,11.6-17.1,16.4-26.2c3.3-6.3,5.2-13.4,7.5-20.1c4-11.3,5.2-23,5.9-34.9c0.6-9.8-1.2-19.4-3.1-28.9
	c-2.4-11.7-6.2-23-12.4-33.4c-1.4-2.4-3-4.9,0-7.4c0.3-0.3,0.1-1.1,0.2-1.6c0,0,0,0,0.2,0c0.2-0.2,0.4-0.5,0.5-0.8
	c0-0.2,0.1-0.4,0.7-0.5c1.2-1.1,2.3-2.2,3.3-3.5c0,0,0,0.1,0.2,0c0.2-0.2,0.4-0.4,0.6-0.6c0,0,0,0,0.2,0c1.8-1.8,3.5-3.6,5.1-5.4
	c0,0,0,0.1,0.2,0.1c2.3-0.2,3.3-1.3,3.1-3.4c0,0,0,0.1,0.2,0.1c2.5-1.2,4.9-2.3,5.1-5.4c0,0,0,0.1,0.2,0c3.8-3.2,7.4-6.4,11.1-9.6
	c2.8-2.4,3.1-2.2,5.1,1c7.6,11.8,12.7,24.8,18.1,37.7c4.6,11,6.4,22.5,8.2,34c0.7,5.2,0.9,10.4,0.8,15.6c0.1,11.2,0.6,22.4-0.4,33.5
	c-0.8,9-3.1,18.1-5.7,26.8c-2.7,9.2-6.7,18-10,26.9c-0.3,1.1-0.5,2.2-0.5,3.4c0,0,0-0.1-0.2-0.1c-0.4,0.2-0.8,0.5-1.1,0.9
	c-5.2,8.6-10.3,17.2-15.4,25.8c-1,1.7-1.8,3.6-2.6,5.4c0,0,0-0.1-0.2-0.1c-0.7,0.2-1.3,0.5-1.9,0.9c-9.3,9.8-18.6,19.6-27.9,29.4
	c-0.6,0.8-1,1.6-1.4,2.5c-2.1,2.2-4.1,4.4-6.3,6.5c-2.6,2.6-5.4,4.9-8,7.6c-5,5.1-9.7,10.4-14.7,15.4c-5.1,5.2-10.4,10.1-15.5,15.3
	c-6.9,7-13.8,14-20.7,21c-8.7,8.7-17.4,17.4-26.2,26.1c-0.5,0.6-1,1.1-1.6,1.6c-0.6,0.2-0.6,0.4-0.5,0.6c-0.3,0.4-0.6,0.8-1,1.2
	c-1.3,1.3-2.2,2.4-3.2,3.5c-0.1,0-0.2,0.1-0.3,0.1c-1.6,1.6-3,3.1-4.4,4.6c-0.1,0-0.2,0-0.3,0c-2.5,2.7-4.8,5.3-7.1,8
	c-0.1,0-0.2,0-0.3,0c-3,1.7-4.7-0.3-6.4-1.9c0-0.1-0.1-0.2-0.1-0.3c-1.8-1.7-3.4-3.2-5-4.8c0-0.2-0.1-0.3-0.1-0.5
	c-0.2-0.3-0.4-0.4-0.7-0.6c0,0,0,0-0.1-0.2c-0.2-0.2-0.4-0.3-0.7-0.4c0-0.1-0.1-0.2-0.1-0.3c-1.5-1.5-3-2.8-4.4-4.1
	c0-0.2-0.1-0.4-0.2-0.5c-2.3-2.4-4.5-4.4-6.7-6.5c0-0.1-0.1-0.2-0.1-0.2c-0.9-0.9-1.8-1.6-2.6-2.3c0-0.1-0.1-0.2-0.1-0.3
	C809.3,420.9,808.1,419.8,807,418.7z"/>
<path class="st1" d="M824.2,54.9c-4.5,0.6-8.9,1.1-13.4,1.8c-13.6,2-26.8,6-39.2,11.9c-13.2,6.2-25.1,15.1-34.7,26
	c-0.3,0.3-0.5,0.7-1.7,2.2c-3.9-4.4-7.5-8.7-11.4-12.8c-5.6-5.8-11.3-11.6-17.1-17.2c-3.7-3.6-4.1-4.5-0.3-7.8
	c8.5-7.4,16.8-15.1,26-21.6c8.2-5.7,16.8-10.7,25.9-14.9c16.3-7.6,33.7-12.7,51.5-15.1c14.5-2.1,28.9-2,43.3-1
	c9.3,0.6,18.7,2.8,27.8,5.1c8.8,2.2,17.5,5.4,26.1,8.5c4.3,1.7,8.5,3.7,12.6,6c5.5,2.9,10.9,5.9,16.2,9.3
	c10.5,6.8,20.1,14.6,28.9,23.5c3.9,3.9,4,4.2,0.1,8c-9.9,9.6-19.8,19.1-29.4,28.4c-5.6-4.9-11.7-10.6-18.2-15.8
	c-7.2-5.7-15.3-10.1-24-13.2c-7.1-2.6-14.2-5.3-21.4-7.2c-6.5-1.6-13.2-2.1-19.8-3.1c-1.8-0.2-3.6-0.6-5.3-1
	c-7.3-0.5-14.1-0.6-21-0.7C824.9,54.1,824.5,54.6,824.2,54.9z"/>
<path class="st2" d="M426.2,207.8c0-16.8,0.1-33.3-0.1-49.8c0-3,0.9-4,3.8-3.8c2.3,0.2,4.6,0,7.1,0v66c-0.7,0.1-1.6,0.2-2.4,0.2
	c-7.9,0-15.8-0.2-23.7,0.1c-4.6,0.1-7.6-1.9-10.1-5.4c-0.4-0.4-0.8-0.8-1.3-1.1c-3.6,4.6-8.1,6.6-14.1,6.6
	c-17.9-0.2-35.9,0-53.8-0.2c-3.3,0-6.6-1.3-10-2.1c-0.6,2.4-1.2,5.8-2.1,9.2c-3.3,12.3-14.6,15.6-24.8,14.7
	c-7.3-0.7-13.8-3.5-17-10.5c-1.7-4.3-2.9-8.8-3.5-13.4c-0.7-4.5-0.6-9.1-0.9-13.6c-0.2-2.1,0.8-2.7,2.7-2.8c7.9-0.5,7.6-0.6,8.1,7.2
	c0.2,4.7,0.9,9.4,2.2,14c2.1,7.4,6.8,8.1,13.3,7.8c5.2-0.3,8.4-3.3,9.4-8.4c0.7-3.8,1.7-7.6,1.7-11.4c0.2-17.6,0.2-35.2,0-52.8
	c0-3.3,1.1-4.2,4.2-4.1c8.8,0.3,7.6-1.3,7.7,7.9c0.1,13,0,26.1,0,39.1c0,7.1,1.1,8.1,8.1,8.1c3.3,0,6.6,0,10.3,0
	c-3-6.7-3.1-13.2-2.3-19.9c1.5-12.7,12.9-19.9,24.2-16c7.7,2.7,10.9,8.4,12,16.1c1.1,6.6,0.5,13.4-1.7,19.7c4.6,0,8.9,0.1,13.2,0
	c3-0.1,4.6-1.7,4.6-4.9c-0.1-7.5,0.1-14.9-0.1-22.4c0-2.8,0.9-3.7,3.7-3.7c9,0.2,8.1-1.2,8.1,7.9c0,5.3,0,10.7,0.3,16
	c0.1,3.7,3,6.8,6.7,7c4.9,0.3,9.8,0.1,14.7,0.1C425.1,209.3,425.6,208.6,426.2,207.8 M364.1,199.2c-0.4-3.7-0.7-7.5-1.2-11.2
	c-0.5-3.2-3.1-4.1-5.8-4.2c-2.9-0.1-5.3,1-6.2,4.2c-1.6,5.6-1.6,11.5,0,17.1c0.8,3.2,3,4.6,6,4.7c2.9,0.4,5.6-1.6,6.1-4.5
	C363.4,203.5,363.7,201.6,364.1,199.2L364.1,199.2z"/>
<path class="st3" d="M515.3,182.4c6.2,0,5.3-0.4,5.3,5c0,5.2,0,10.5,0,15.7c0,5.1,1.4,6.8,5.1,6.7c3.8-0.1,5.1-1.8,5.1-6.9
	c0-6.1,0-12.2,0-18.4c0-1.3,0.2-2.6,0.4-4.1c2.9-0.1,5.7-0.1,8.6,0.1c0.8,0.1,2.1,1.8,2.1,2.8c0.2,6.8,0.1,13.6,0.1,20.4
	c0,4.7,1.2,6.1,5,6.1c4.6,0,6.3-1.7,6.3-6.2c0-7.2,0.1-14.5-0.1-21.7c-0.1-2.8,0.9-3.6,3.7-3.6c9.1,0.3,7.7-1.1,7.8,7.8
	c0.1,5.6,0,11.1,0,16.7c0,5.2,1.3,6.5,6.4,6.6c2.7,0,5.3,0,8,0c4.2-0.1,6.1-1.9,6.2-6.1c0.1-6.9,0-13.8,0-20.7v-4.2
	c3-0.1,6-0.1,9.1,0.1c0.8,0.1,1.9,2,2,3.1c0.2,5.7,0.2,11.4,0.1,17c-0.1,7.5,3.3,11.3,10.8,10.8c2.8-0.2,5.6,0,8.6,0
	c0.1-1,0.2-1.8,0.2-2.7c0-8.4,0.1-16.7,0-25.1c0-2.4,0.7-3.4,3.2-3.4c8.2-0.1,8.2-0.2,8.2,8v34.2c-2.2,0-4.1,0-6.1,0
	c-4.6,0-9.2-0.3-13.7,0.1c-5.9,0.5-10.7-1.1-14.1-6.7c-4.2,5.1-9.3,7.5-15.6,6.7c-5.6-0.7-12,2.3-16.4-3.5c-8,5.2-17.4,5.2-22.8-0.1
	c-2.6,3.6-6.6,3.9-10.5,4c-3.9,0-7.8-0.2-10.1-3.2c-10.3,4.9-20.4,3.2-30.5,1.5c-0.7,3.8-1.5,8.2-2.5,12.5c-2,8.8-10.1,13-18.5,9.8
	c-0.9-0.4-1.9-0.7-2.9-1.1v-9.8c1.6,0.2,3,0.3,4.4,0.6c4.7,1,6.8-0.6,6.8-5.3c0.2-13.8,0.3-27.6,0.3-41.4c0-3,0.7-4.1,3.9-4
	c7.8,0.2,7.8,0,7.8,7.7c0,5,0.2,10-0.1,15c-0.2,3.9,1.9,5.7,5.1,6c4.2,0.4,8.4,0.4,12.7,0.2c3.2-0.2,4.4-2.5,4.4-5.6
	c0-6.9,0-13.8,0-21.2L515.3,182.4z"/>
<path class="st3" d="M190.5,207.9c2.7,0.7,5.5,1.2,8.2,1.4c4.5,0.2,9.1,0.1,13.9,0.1c0.1-1.1,0.3-1.9,0.3-2.8
	c0-16.1,0.1-32.3-0.1-48.4c0-3.1,0.9-4,4-3.9c7.7,0.2,7.7,0,7.7,7.7c0,18.3-0.1,36.5,0.1,54.8c0,3.3-1.1,3.9-4,3.8
	c-6.6-0.2-13.1-0.1-19.7-0.1c-4.4,0-9,0.8-12.5-3.7c-1.3,4-4.1,3.7-6.9,3.7c-15.8-0.1-31.6,0.1-47.4-0.1c-4.8,0-10,1.5-13.5-2
	c-1.4,5.7-2.2,11.5-4.3,16.8c-2.4,6.2-10.1,8.7-16.6,6.3c-1.1-0.4-2.2-0.9-3.5-1.4v-9.6c1.3,0,2.6,0.1,3.8,0.3c4.8,1.2,7.6,1,8-6.3
	c0.4-7.7,0.1-15.4,0.1-23c0-6,0.1-12,0-18c0-2.2,0.4-3.1,2.9-3.1c8.5,0,8.5-0.1,8.5,8.4c0,4.7-0.1,9.4,0,14c0.1,4.7,1.5,6.2,6.1,6.5
	c3.3,0.2,6.7,0,10.3,0v-54.9c3.2-0.1,6.3-0.1,9.5,0.1c0.6,0.1,1.5,1.9,1.5,3c0.1,9.5,0.1,18.9,0.1,28.4v3.3c3.7-3.9,7-8.5,11.3-11.8
	c9.1-6.8,24.4-2,28.3,8.2c2,5.3,1.3,10.5,1.9,15.7C189.1,203.6,189.7,205.8,190.5,207.9 M163.4,209.4h14.8c-0.6-6-0.7-11.6-1.8-17.1
	c-1.3-6.2-9.1-8.4-14-4.5c-6.9,5.5-10.3,13-13,21.6L163.4,209.4z"/>
<path class="st4" d="M877,145v25.3h43.5v-27.9h7.2v35.8h-4.1l-164.4,0c-0.9,0.1-1.8,0.1-2.7,0c-5.5-0.6-9.6,0.4-12.6,6.2
	c-2.9,5.7-11,8.4-17.9,7.9c0.1-4,2.2-6.9,5.7-7.7c4.9-1.1,8.7-6.4,8.7-12.6c0.1-9.8,0-19.6,0-29.5h7.1v27.8h43.6v-27.8h6.9v27.9h7.8
	v-27.9h6.7v27.8h7.5v-27.8h6.9v28.2H870v-28.1l0.7-0.5C872.5,143.9,876.4,139.2,877,145z"/>
<path class="st3" d="M818.3,317.9c-2.5-2.7-5.3-5-7.3-7.8c-1.2-2-1.9-4.2-1.9-6.6c-0.2-10.1-0.1-20.2-0.1-30.6
	c2-0.1,3.2-0.2,4.4-0.2c14.8,0,29.6,0.1,44.4-0.1c3,0,4.1,0.8,4.1,4c-0.2,8.9-0.1,17.8,0,26.7c0.1,3.1-1.2,6-3.5,8.1
	c-6.8,6.7-13.4,13.6-20,20.5c-2.6,2.7-3.7,2.5-6.3-0.2C827.6,327,823,322.6,818.3,317.9z"/>
<path class="st2" d="M90.8,190.6C90.6,201.4,91,212,90,222.5c-0.6,6.6-2.9,13.4-9.3,17.2c-4.6,2.7-9.6,3.8-14.9,1.8
	c-1.7-0.6-2.5-1.4-2.4-3.4c0.2-2.4,0-4.9,0-8c8.3,1.9,15.1,1.3,15.4-9.7c-2.2-0.1-4.3-0.1-6.5,0c-6.1,0.6-12.4-5.9-14.2-11.2
	c-3.1-8.7-2.7-17.4,0.2-25.8c3.1-9.2,12.5-13.3,21.4-10.1c7,2.5,9.9,7.9,10.6,14.9C90.4,189,90.6,189.6,90.8,190.6 M79.6,192.2
	c-0.5-1.8-0.6-3.8-1.6-5.3c-0.8-1.3-2.2-2.2-3.8-2.5c-1.6,0.1-3.1,0.9-4.2,2.1c-2.9,3.7-1.7,8.3-1.9,12.5
	c-0.6,11.7,3.4,10.4,11,10.3c0.5-0.1,0.9-0.3,1.3-0.5C80.2,203.5,79.9,198.1,79.6,192.2z"/>
<path class="st2" d="M40.8,220.5H18.2v-10.9h19.9c-0.6-6.9-1-13.3-1.6-19.6c-0.3-3.2-3-4.1-5.7-4.7c-0.7-0.1-1.3-0.1-2-0.1
	c-8.2-0.2-8.4-0.4-7.4-8.7c0.1-0.7,1-2,1.5-2c5.4,0.3,10.8-1,16.1,1.4c5,2,8.5,6.7,8.9,12.1c0.9,10.4,0.6,20.9,0.8,31.3
	c-0.1,0.4-0.3,0.9-0.5,1.3L40.8,220.5z"/>
<path class="st1" d="M245.4,173v47.3h-10.7v-66c2.9-0.1,5.8-0.1,8.6,0.1c0.8,0.1,1.9,1.6,1.9,2.6C245.5,162.2,245.4,167.5,245.4,173
	z"/>
<path class="st5" d="M204.6,282.8v15.1h-6v-35.8h5.9v15h17.2v-14.9h6.1v35.7h-6.1c0-5,0-9.9-0.4-15.3c-4.9-0.5-9.5-0.6-14-0.6
	C206.3,282.1,205.5,282.4,204.6,282.8z"/>
<path class="st6" d="M401.2,287.2c-0.6-0.7-1-1.2-1.5-2l-7.7,12.7h-7.3c3.5-5.6,6.6-10.9,10-15.9c1.3-1.9,1.2-3-0.1-4.8
	c-3-4.2-5.6-8.6-8.3-12.9c-0.3-0.7-0.6-1.3-0.8-2c4.4-1,7.7-0.6,9.7,3.9c1.3,2.9,3.6,5.4,5.6,8.3c1.6-2.7,3.3-5.4,4.8-8.1
	c2.8-4.9,3.2-5,9.7-4.1c-3,4.7-5.7,9.4-8.8,13.8c-2,2.7-2.1,4.8-0.1,7.5c2.8,3.9,5.3,8,7.9,12c0.5,0.7,0.8,1.5,1.1,2.1
	c-5.1,1.6-8.5,0.1-10.6-4.7C403.8,290.9,402.6,289,401.2,287.2z"/>
<path class="st6" d="M518.1,288.6c0,1.4,0,2.5,0,4h18.5v5.3h-23.8v-35.8h23.1v5.8h-17.6v9.3h15.6v5.5h-15.8
	C518.1,284.6,518.1,286.5,518.1,288.6z"/>
<path class="st7" d="M253.3,282.6c-0.3,3.2-0.6,6.4-0.9,10h18.7v5.3h-24.4v-35.8h23.7v5.8h-17.6c-0.1,3.2,0.1,6.3,0.4,9.5
	c1,0.4,2,0.6,3,0.6c3.1,0,6.2-0.1,9.3,0.1c0.8,0.1,1.6,1.3,2.3,2c-0.7,0.7-1.4,1.3-2.3,1.8c-1,0.2-2,0.2-3,0.1
	C259.6,282.2,256.5,282.4,253.3,282.6z"/>
<path class="st8" d="M142.4,292.8c-0.2,0.4-0.5,0.7-0.8,1.1c-0.2,0.3-0.4,0.6-0.5,0.9c0,0,0-0.1-0.2,0c-0.2,0.2-0.4,0.4-0.5,0.7
	c0,0,0-0.1-0.2,0c-0.2,0.2-0.4,0.3-0.6,0.5c-0.2,0.1-0.4,0.1-0.5,0.1c-0.5,0.2-1,0.4-1.4,0.7c0,0,0-0.1-0.2-0.1
	c-0.4,0.2-0.8,0.4-1.2,0.6c-0.2,0.1-0.4,0.1-0.6,0.1c-4.1,0-7.8-0.1-11.4,0c-2.1,0.1-3.2-0.9-3.2-2.9c0-9.7,0-19.3,0-29
	c0-2,1-3,3.1-2.9c2.8,0.1,5.6,0,8.3,0c0.2,0,0.4,0.1,0.5,0.2c0.9,0.2,1.8,0.4,2.8,0.5c0.2,0,0.4,0.1,0.5,0.2
	c0.5,0.2,0.9,0.3,1.4,0.4c0,0-0.1,0,0,0.2c0.4,0.2,0.8,0.4,1.3,0.5c0,0-0.1,0,0,0.2c0.2,0.2,0.4,0.4,0.7,0.5c0,0-0.1,0-0.1,0.2
	c0.2,0.4,0.5,0.8,0.8,1.1c0,0-0.1,0-0.1,0.2c0.5,1.2,1,2.2,1.4,3.1c0,0-0.1,0-0.1,0.3c0,1,0,1.8,0.1,2.6c0,0,0-0.1-0.2,0
	c-0.2,0.9-0.4,1.8-0.5,2.7c0,0.2-0.1,0.3-0.2,0.4c-0.2,0.3-0.4,0.5-0.5,0.8c0,0,0-0.1-0.2,0c-0.2,0.2-0.4,0.5-0.5,0.8
	c0,0.1-0.1,0.3-0.2,0.3c-0.4,0.3-0.7,0.6-1,1c0,0.4,0,0.7,0.1,1.1c0.3,0.4,0.8,0.6,1.2,0.8c0,0-0.1,0,0,0.2c0.2,0.2,0.4,0.4,0.7,0.5
	c0,0-0.1,0,0,0.2c0.2,0.2,0.4,0.4,0.7,0.5c0,0-0.1,0,0,0.2c0.2,0.2,0.4,0.4,0.7,0.5c0,0-0.1,0,0,0.2c0.2,0.2,0.4,0.4,0.7,0.5
	c0,0-0.1,0,0,0.2c0.2,0.2,0.3,0.4,0.5,0.6c0.1,0.2,0.1,0.4,0.1,0.6c0,2.3,0,4.2,0.1,6.1c0,0,0-0.1-0.2,0
	C142.7,291.4,142.5,292.1,142.4,292.8 M134.9,269c-0.3-0.2-0.6-0.3-0.9-0.4c-0.2-0.1-0.3-0.2-0.4-0.4c-0.3-0.1-0.6-0.2-0.9-0.3
	c0,0-0.2-0.1-0.3-0.5c-1.9-0.7-3.7-1.8-5.6,0.6c-0.3,0-0.5,0.1-0.7,0.3c0.1,2.8,0.2,5.6,0.4,8.6c0,0.3,0.1,0.5,0.2,0.8
	c2.3,1.5,4.4,1.8,6.5-0.4c0,0-0.1,0,0.3-0.1c0.2-0.2,0.4-0.4,0.7-0.6c0.2,0,0.4,0,0.6-0.1c0.1-0.2,0.3-0.4,0.4-0.5
	c0,0-0.1,0,0.3-0.1c0.2-0.3,0.3-0.6,0.4-0.9c0.1-0.2,0.3-0.4,0.4-0.5c0.1-0.4,0.1-0.8,0.2-1.1c0,0-0.1,0,0.3-0.2
	c-0.3-0.8-0.6-1.7-1-2.7c0-0.2,0-0.4-0.1-0.6c-0.2-0.1-0.4-0.3-0.6-0.4C135,269.3,135,269.3,134.9,269 M126.5,292.1
	c2.5,0.1,5.1,0.1,7.6-0.1c2.3-0.3,4.2-1.9,3.4-4.3c-0.8-1.9-2.3-3.4-4.2-4.2c-2-0.7-4.5-0.2-6.9-0.2
	C126.4,286.4,126.4,288.9,126.5,292.1L126.5,292.1z"/>
<path class="st7" d="M352.4,282.8v9.7h18.4v5.4h-23.7v-35.8h23.1v5.8h-17.7c-0.1,3.2,0.1,6.3,0.4,9.5c4.4,0.5,8.4,0.4,12.3,0.7
	c0.8,0.1,1.6,1.3,2.4,2c-0.8,0.6-1.5,1.6-2.3,1.8c-1.8,0.3-3.8,0-5.6,0.1C357.2,282.2,354.8,282.5,352.4,282.8z"/>
<path class="st9" d="M486.1,263.2c8.7,3,9.7,12.7,2.1,21.1c1.4,2.2,2.9,4.4,4.3,6.6c1.4,2.2,2.6,4.5,3.9,6.7
	c-5.8,2.4-8.4-1.3-10.7-5.5c-0.5-1-1.1-1.9-1.6-2.9c-1.6-3.5-4.2-4.7-8.3-3.3c-0.5,3.2-0.4,5.9-0.7,8.7c-0.1,0.9-1.1,1.8-1.8,2.7
	c-0.7-0.9-2-1.8-2-2.7c-0.1-9.8-0.1-19.5-0.1-29.3c0-2,0.8-2.8,2.8-2.8c2.9,0,5.8,0,8.6,0c0,0-0.1,0,0.1,0.2
	C483.8,263,485,263.2,486.1,263.2 M486.5,270.3c-0.3-0.2-0.5-0.5-0.7-0.8c-0.5-0.4-0.9-0.9-1.4-1.3c-0.3-0.1-0.6-0.2-0.9-0.3
	c-0.2-0.1-0.4-0.3-0.6-0.5c-2.1,0.1-4.2,0.3-6.6,0.6c-0.1,0.2-0.3,0.4-0.8,0.9c0.1,3.4,0.3,6.9,0.6,10.6c0.3,0.2,0.6,0.5,0.9,0.8
	c1.7-0.1,3.4-0.2,5.3-0.5c0,0,0.2,0,0.7,0c0.4-0.2,0.7-0.4,1.3-0.7c0.2,0,0.4,0,0.6-0.1c0.1-0.2,0.3-0.4,0.4-0.5c0,0,0,0,0.3-0.1
	c0.1-0.2,0.2-0.4,0.4-0.5c0,0-0.1,0,0.3-0.1c0.1-0.2,0.2-0.4,0.4-0.5c0,0-0.1,0,0.3-0.2c0.1-0.5,0.3-1,0.3-1.5
	c0.1-0.2,0.3-0.4,0.4-0.6c-0.1-1-0.2-2-0.4-3.3c0-0.2,0-0.4-0.1-0.6c-0.2-0.1-0.4-0.3-0.5-0.4C486.6,270.6,486.6,270.7,486.5,270.3
	L486.5,270.3z"/>
<path class="st6" d="M101.2,288.4c1.4,3.2,2.8,6.1,4,9c-0.5,0.4-0.7,0.6-0.9,0.6c-6,0.4-6.1,0.4-8-5.4c-0.8-2.4-1.9-3.6-4.4-3.2
	c-0.4,0.1-0.9,0.1-1.3,0c-5.9-1.1-9.7,0.7-11.2,7c-0.3,1.2-3.7,1.6-5.6,2.3l-0.8-1c5.2-12.3,10.4-24.7,16-38
	C93.6,269.5,97.4,278.8,101.2,288.4 M90,276.1l-1.4-2c-1.3,3.3-2.5,6.4-3.8,9.7h8C91.9,281.2,91,278.9,90,276.1z"/>
<path class="st10" d="M310.1,268c0.1,0.2,0.1,0.3,0.1,0.5c0.1,0.5,0.3,1,0.6,1.4c0.1,0.2,0.1,0.4,0.1,0.7c0,2.6,0,4.7,0,6.8
	c0,0.2-0.1,0.3-0.2,0.4c-0.2,0.3-0.3,0.6-0.5,0.9c0,0.2-0.1,0.3-0.2,0.4c-0.2,0.3-0.4,0.6-0.5,0.9c0,0.2-0.1,0.3-0.2,0.4
	c-0.2,0.3-0.3,0.5-0.5,0.8c0,0,0-0.1-0.2,0c-0.2,0.2-0.4,0.4-0.5,0.7c0,0,0-0.1-0.2,0c-0.2,0.2-0.4,0.4-0.5,0.7c0,0,0-0.1-0.2,0
	c-0.2,0.2-0.4,0.4-0.5,0.7c0,0,0-0.1-0.2,0c-0.2,0.2-0.3,0.5-0.4,0.7c0.3,0.6,0.5,1.1,0.6,1.7c0.1,0.3,0.4,0.6,0.7,0.8
	c0,0-0.1,0,0,0.1c0.2,0.2,0.3,0.4,0.5,0.6c0.1,0.2,0.1,0.3,0.2,0.5c0.2,0.3,0.4,0.6,0.7,0.7c0,0-0.1,0,0,0.1
	c0.2,0.2,0.3,0.4,0.5,0.6c0.1,0.2,0.1,0.4,0.1,0.6c0.2,0.5,0.4,0.9,0.8,1.3c0,0-0.1,0,0,0.1c0.2,0.2,0.4,0.4,0.7,0.5
	c0,0-0.1,0,0,0.1c0.2,0.2,0.3,0.4,0.5,0.6c0.1,0.2,0.1,0.3,0.2,0.5c0.1,0.3,0.4,0.6,0.7,0.7c0,0-0.1,0-0.1,0.3
	c0.5,4.6-2.9,2.6-4.7,3.1c0,0,0,0,0-0.2c-0.2-0.2-0.3-0.4-0.5-0.6c-0.1-0.1-0.1-0.3-0.1-0.5c-0.1-0.3-0.3-0.6-0.5-0.9
	c-0.1-0.1-0.1-0.3-0.1-0.5c-0.2-0.3-0.4-0.6-0.7-0.7c0,0,0.1,0,0.1-0.2c-0.2-0.4-0.5-0.8-0.8-1.1c0,0,0.1,0,0-0.2
	c-0.2-0.2-0.4-0.4-0.7-0.5c0,0,0.1,0,0.1-0.2c-0.2-0.4-0.5-0.8-0.8-1.1c0,0,0.1,0,0-0.1c-0.2-0.2-0.4-0.4-0.7-0.5c0,0,0.1,0,0-0.1
	c-0.2-0.2-0.3-0.4-0.5-0.6c-0.1-0.2-0.1-0.3-0.2-0.5c-0.2-0.3-0.4-0.5-0.7-0.7c0,0,0.1,0,0-0.1c-0.2-0.2-0.3-0.4-0.5-0.6
	c-0.3-0.6-0.7-1.2-0.9-1.8c-1.9-0.2-3.8-0.2-5.7,0c0,0.2-0.1,0.4-0.3,0.6c-0.4,3-0.3,5.6-0.6,8.2c-0.1,1.1-1.2,2-1.9,3
	c-0.6-1-1.8-2-1.9-3c-0.1-9.6-0.1-19.3-0.1-28.9c0-2,0.8-2.8,2.8-2.8c2.9,0,5.8,0,8.6-0.1c0,0-0.1,0,0.1,0.2
	c1.1,0.2,2.2,0.4,3.4,0.5c0.2,0,0.3,0.1,0.4,0.2c0.3,0.2,0.6,0.3,0.9,0.5c0.2,0,0.3,0.1,0.4,0.2c0.3,0.2,0.5,0.4,0.8,0.5
	c0,0-0.1,0,0,0.2c0.2,0.2,0.4,0.4,0.7,0.5c0,0-0.1,0,0,0.2c0.2,0.2,0.4,0.4,0.7,0.5c0,0-0.1,0,0,0.2c0.2,0.2,0.4,0.4,0.7,0.5
	c0,0-0.1,0,0,0.2c0.2,0.2,0.4,0.4,0.7,0.5c0,0-0.1,0,0,0.2C309.7,267.7,309.9,267.9,310.1,268 M302.4,278.7c2.9-1.2,3.6-3.7,2.8-6.3
	c-0.8-2.8-2.6-4.8-5.9-4.5c-1.6,0.1-3.3,0-5,0v12.4C297.1,279.9,299.6,279.5,302.4,278.7L302.4,278.7z"/>
<path class="st11" d="M431.1,276.6v-14.7c6.1,0.4,12.2-1.2,17.8,2.1c4.1,2.4,6.2,7.7,5,13.2c-0.9,4-5.8,8-10.1,8.1
	c-2.1,0.1-4.2,0-6.5,0v12.5h-6.2L431.1,276.6 M446.3,269c-0.3-0.2-0.6-0.3-0.9-0.4c-0.2-0.1-0.3-0.2-0.5-0.4
	c-0.3-0.1-0.6-0.2-0.9-0.2c-0.2-0.1-0.4-0.3-0.6-0.5c-1.9,0.1-3.8,0.2-6,0.5c-0.1,0.2-0.3,0.4-0.8,1c-0.1,2.3-0.2,4.6-0.2,6.9
	c0,5.1,0.9,5.8,6.3,4c0,0,0.3,0,0.7,0c0.4-0.2,0.7-0.4,1.3-0.7c0.2,0,0.4,0,0.6-0.1c0.1-0.2,0.3-0.4,0.4-0.5c0,0,0,0,0.3-0.1
	c0.1-0.2,0.2-0.4,0.4-0.5c0,0-0.1,0,0.3-0.1c0.1-0.2,0.2-0.4,0.4-0.5c0,0-0.1,0,0.3-0.1c0.2-0.3,0.3-0.6,0.4-0.9
	c0.1-0.2,0.3-0.4,0.4-0.5c0.1-0.4,0.2-0.8,0.2-1.5c0.1-0.2,0.2-0.3,0.3-0.4c0-0.1,0.1-0.2,0.1-0.2c-0.2-0.2-0.3-0.4-0.4-0.6
	c0,0,0-0.3,0-0.7c-0.2-0.4-0.4-0.7-0.7-1.3c0-0.2,0-0.4-0.1-0.6c-0.2-0.1-0.4-0.3-0.5-0.4c0,0,0,0.1-0.1-0.3
	c-0.2-0.1-0.4-0.2-0.5-0.4C446.5,269.3,446.5,269.4,446.3,269L446.3,269z"/>
<path class="st12" d="M600.8,282c-1.2-0.4-2.4-0.9-3.6-1.4c-5-2.5-6.6-5.9-5.7-11.6c0.5-3.3,5-7,9.4-7c3.7,0,7.4,0.7,10.8,2.1
	c3.3,1.4-0.5,3.3-0.1,5.2c-3.3-0.7-6.1-1.5-9-1.9c-2.4-0.3-4.3,0.6-5,3.2c-0.7,2.6,1.1,3.8,3,4.7c2.4,1.2,5,2.2,7.4,3.4
	c4.1,2,6.4,6.4,5.7,10.9c-0.6,4.3-4.2,7.4-8.8,8.5c-5.7,1.4-10.4-0.8-15.8-3.2l2.6-4.8c2.4,0.9,4.7,1.9,7.1,2.7
	c1.2,0.4,3,0.9,3.8,0.3c1.9-1.1,3.5-2.7,4.6-4.6c0.4-0.9-1.4-3-2.6-4.3C603.7,283.3,602.3,282.8,600.8,282z"/>
<path class="st12" d="M175.7,288c-1.3-1.7-2.4-3.5-4-4.6c-3.2-2.1-7-3.3-9.8-5.7c-4.1-3.5-2.8-11.1,1.9-13.9
	c6.2-3.6,12-1.9,17.8,0.9c-1.4,4.9-1.4,4.8-6.1,3.3c-1.9-0.7-3.8-0.9-5.8-0.6c-1.6,0.4-3,1.5-3.7,3.1c-0.3,1,0.8,3.1,1.9,4
	c2,1.4,4.1,2.5,6.3,3.3c6.2,2.6,9.1,7.7,7.4,13.3c-1.6,5.1-8.6,8.8-14.2,7.5c-1.8-0.4-3.5-1-5.2-1.7c-1.5-0.6-2.9-1.4-4.5-2.2
	l2.3-4.7c2.5,1,4.8,2.2,7.2,3C171.3,294.3,174.6,292.4,175.7,288z"/>
<path class="st13" d="M925.9,233.9c-2-3.1-3.9-5.9-5.6-8.8c-1.4-2.3-3.6-2.3-5.6-1.7c-0.9,0.3-1.5,2.3-1.6,3.6
	c-0.3,2.5-0.1,5.1-0.1,7.8h-4.4v-33c5,0.6,9.7,1,14.4,1.9c6.9,1.3,7.5,12.6,3.2,16.5c-2,1.8-2.2,3-0.6,5.2c2,3,3.9,6.1,5.6,9.2
	l-0.5,0.8C929.2,235,927.6,234.5,925.9,233.9 M916.7,218.7c0.8,0,1.6,0,2.3-0.1c3.3-0.3,5.1-2,5.3-5.1c0.2-3.2-1.6-5.9-4.5-6.4
	c-2.3-0.2-4.5-0.2-6.8-0.1c0,3.2,0.1,6,0,8.7C912.9,218.1,913.8,219,916.7,218.7L916.7,218.7z"/>
<path class="st14" d="M896,206.6c-3.6,0-7,0.1-10.3,0c-1.8,0-2.7,0.4-2.6,2.4c0.1,2.3,0,4.6,0,7.3h15.1c0.1,1.5,0.1,2.6,0.2,4.1h-15
	v10h16.9v4.3h-21.3v-32.2H900v4H896z"/>
<path class="st15" d="M843.5,217.8c0-5.2,0-10.1,0-15.2h4.4v13.8c5.4,0,10.4,0.1,15.5-0.1c0.6,0,1.5-1.5,1.5-2.3
	c0.2-3.8,0.1-7.5,0.1-11.5h4.1v32.1h-4v-13.9h-16.9v13.9l-4.7,0.2L843.5,217.8z"/>
<path class="st16" d="M998.9,268.7c-0.1-1.1,0-2.2,0.3-3.3c3.4-9,7.3-17.8,10-26.9c2.6-8.7,4.9-17.8,5.7-26.8
	c1-11.1,0.4-22.3,0.4-33.5c0.1-5.2-0.1-10.4-0.8-15.6c-1.8-11.5-3.7-23-8.2-34c-5.4-12.9-10.5-25.9-18.1-37.7c-2-3.2-2.4-3.4-5.1-1
	c-3.6,3.2-7.2,6.4-11.1,9.6c2.6-3.1,5.4-6.2,8.2-9.3c1.2-1.2,2.4-2.2,3.8-3.2c1.6-1.3,3-1.4,4.1,0.6c4.1,7.4,8.6,14.5,12,22.2
	c5.6,12.7,10.8,25.5,13.6,39.2c2.8,13.8,3.6,27.7,3.7,41.6c0.1,12.3-1.1,24.6-3.7,36.6c-1.9,8.7-4.4,17.3-7.4,25.7
	C1004.4,258.2,1001.6,263.3,998.9,268.7z"/>
<path class="st17" d="M754.2,234c4-9.6,7.9-18.9,11.8-28.2c0.5-1.2,1.2-2.3,2.2-4.2l14,32.9c-4.9,1.1-5,1-6.3-3.4
	c-1-3.2-2.5-5.4-6.3-4.6c-0.7,0.1-1.3,0.1-2,0c-4.2-0.6-7,0.3-8.1,5.2C758.6,235.4,757.1,235.7,754.2,234 M765.6,217l-2.2,5.7h9
	c-1.5-3.7-2.8-6.9-4.5-11.2C766.9,213.9,766.4,215.2,765.6,217z"/>
<path class="st12" d="M56.8,261.9h5.9v6.1h-9v29.9h-5.5v-29.7H39v-6.2H56.8z"/>
<path class="st18" d="M825,215.8c1.9,0.8,3.5,1.3,5.1,2.1c4.5,2.4,6.4,5.9,5.4,10.2c-0.9,4.1-4.3,6.9-9.2,7.1
	c-4.1,0.2-8.2-0.3-11.9-3.2c0.6-1,1.3-2,1.9-3c4,1.6,7.6,3.8,11.8,1.6c3.3-1.7,3.9-6,0.9-8c-2.4-1.5-5-2.8-7.6-3.9
	c-4.5-2-6.2-5.1-5.3-9.8c0.6-3.1,4.7-6.6,8.3-6.4c3.6,0.2,7.1,1,11,1.6c-0.7,1.8-1.1,2.9-1.3,3.7c-2.9-0.5-5.5-0.9-8.2-1.3
	c-2.4-0.5-4.8,0.9-5.4,3.3c-0.8,2.4,1,3.8,3.1,4.8C824,215,824.5,215.4,825,215.8z"/>
<path class="st2" d="M369,159c0,7.9,0,7.9-7.6,7.7c-4-0.1-8,0-11.9,0c-1.3,0-2.6-0.3-4.1-0.4c0-3.5-0.1-6.7,0.1-9.9
	c0.3-1,1.2-1.8,2.2-2c6.4-0.2,12.7-0.1,19.1-0.1C370.3,154.3,368.5,157.1,369,159z"/>
<path class="st16" d="M679.5,94.1c0.1,1-0.1,2.1-0.5,3c-3.6,7.6-7.4,15.1-10.8,22.7c-2.9,6.2-5.4,12.6-7.4,19.1
	c-6.1,21.4-6.6,43.4-5.6,65.5c0.3,7.2,2.3,14.4,3.6,21.5c0.6,3.6,1.2,7.2,2,10.7c2.3,10.2,6.4,19.7,11,29c2.7,5.5,5.3,11,7.9,16.8
	c-2.7-4.4-5.7-8.8-7.9-13.6c-4-8.7-8-17.5-11.1-26.6c-2.4-7.3-3.5-15-5-22.6c-2.8-14.2-2.4-28.6-2-42.9c0.4-7.8,1.3-15.5,2.7-23.1
	c1.2-7.4,3-14.7,5.3-21.8C666,118.6,672,105.9,679.5,94.1z"/>
<path class="st19" d="M564.6,282.7c-0.2,0-0.3-0.1-0.4-0.2c-0.3-0.2-0.6-0.4-0.9-0.5c-0.2,0-0.3-0.1-0.4-0.3c-2.2-1.2-4.2-2.1-6.2-3
	c0,0,0.1,0,0.1-0.2c-0.6-0.7-1.3-1.3-2.1-1.8c0,0,0.1,0,0.1-0.3c0.4-3.9,0.9-7.6,1.3-11.2c0,0,0,0.1,0.2,0c0.2-0.2,0.4-0.4,0.5-0.7
	c0,0,0,0.1,0.2,0.1c3.4-0.4,6.5-1,9.7-1.2c1.9,0,3.7,0.2,5.6,0.5c0,0-0.1,0,0,0.2c1.4,3.3-0.2,3.9-2.8,3.9c0,0,0.1,0,0-0.3
	c-2.8-1.8-7.2-1.5-8.6,0.3c0,0,0-0.1-0.2,0c-0.2,0.2-0.4,0.4-0.5,0.7c0,0,0-0.1-0.2,0c-0.2,0.2-0.4,0.4-0.5,0.7c0,0,0-0.1-0.2,0
	c-0.2,0.7-0.4,1.3-0.4,2c0,0.1,0,0.3-0.1,0.4c0.2,0.5,0.4,1,0.8,1.4c0,0-0.1,0-0.1,0.2c0.9,3.4,3.4,3.7,6.1,3.7c0,0-0.1,0,0,0.2
	c1.6,0.7,3.1,1.3,4.7,1.8c0,0-0.1,0,0,0.2c0.3,0.7,0.6,1.3,1,1.9c3.5,3.9,4.2,7.4,1.4,11.6c-1.4,2.1-3.9,3.4-5.8,5
	c-0.4,0.1-0.8,0.1-1.2,0c-1.4-0.2-2.9-0.4-4.3-0.5c-5.1-0.4-8-2.4-8.4-5.6c0,0,0.1-0.2,0.4-0.1c3,1,5.7,2,8.5,2.7
	c3.2,0.9,5.6-0.4,6.4-3.1c0,0,0,0,0.2,0c0.2-0.2,0.4-0.4,0.5-0.7c0,0,0,0.1,0.2,0c1.8-1.3,2.8-2.5,0.4-3.9c0,0,0.1,0,0.1-0.2
	c-0.4-0.6-0.9-1.2-1.4-1.7c0,0,0.1,0,0.1-0.2c-0.7-0.5-1.4-0.8-2.1-1.1c-0.2,0-0.3-0.1-0.4-0.2C565.3,282.9,565,282.8,564.6,282.7z"
	/>
<path class="st16" d="M839.9,368.8c0.6,1.2,0.1,2.6-1,3.2c-0.4,0.2-0.8,0.3-1.2,0.3c-2.2,0.1-5.1,0-6.4-1.3
	c-13.4-13.3-26.6-26.8-39.9-40.2c-8.1-8.1-16.3-16.1-24.4-24.2c-5.6-5.7-11.1-11.5-16.6-17.2c-5.2-5.3-10.5-10.4-15.6-15.7
	c-1.2-1.3-1.9-3.1-2.8-5c2.6,2.6,5,5.7,7.8,8.4c10.7,10.8,21.6,21.5,32.4,32.3c16.8,16.9,33.6,33.9,50.3,50.9
	c3.3,3.4,6.7,6.8,10,10.1C834.4,372.6,836.8,372,839.9,368.8z"/>
<path class="st20" d="M749.1,202.4c4.1-0.5,2.9,2,2.9,4.3h-8.1v28.1h-4.5c0-7.2,0-14.1,0-21.1c0-6.7,0-6.7-6.8-7
	c-0.4,0-0.8-0.1-1.5-0.2v-4L749.1,202.4z"/>
<path class="st16" d="M952.2,118.9c0.2,0.5,0.3,1.3,0,1.5c-2.9,2.5-1.4,5,0,7.4c6.2,10.4,10,21.7,12.4,33.4
	c1.9,9.5,3.7,19.1,3.1,28.9c-0.7,11.8-1.9,23.6-5.9,34.9c-2.4,6.8-4.3,13.8-7.5,20.1c-4.7,9.1-9.3,18.5-16.4,26.2
	c-0.4,0.3-0.9,0.5-1.4,0.6c2-3.2,4.4-6.2,6.3-9.6c5.1-8.7,10.4-17.3,14.2-26.9c4.4-11.2,7.6-22.7,8.6-34.5
	c0.8-9.9,0.5-19.9-0.8-29.8c-1.2-9.1-3.8-18.1-6.6-26.9c-1.8-5.7-5-11.1-7.8-16.5C948,123.1,947.8,122.9,952.2,118.9z"/>
<path class="st16" d="M732,268.3c-0.9-0.4-2.2-0.9-2.7-1.8c-5.4-9.3-11.5-18.2-15.8-28c-5.2-11.8-8.9-24.3-9-37.6
	c0-4.3-1.4-8.6-1.1-12.9c0.7-9.1,2-18.2,3.1-27.3c1.4-10.9,5.9-20.7,10.5-30.5c0.7-1.3,1.7-2.4,2.8-3.3c-1.4,3.7-3.2,7.3-4.7,11
	c-1.9,4.2-3.6,8.6-5,13c-1.5,5.8-2.8,11.6-3.6,17.5c-1.7,11-2.8,21.9-0.8,33c1,5.4,1.2,11,2.3,16.4c1,4.6,2.3,9.2,4,13.6
	c2.1,5.5,4.5,10.9,7.3,16C723.2,254.5,727.7,261.2,732,268.3z"/>
<path class="st4" d="M394,166.8c-1-0.7-2.3-1.4-2.4-2.2c-0.3-2.6-0.3-5.3,0-7.9c0.1-0.9,1.5-1.6,2.3-2.3c0.1-0.1,0.2,0,0.3,0
	c9.4-0.4,10,0.4,8.4,12.5C400,166.8,397.1,166.8,394,166.8z"/>
<path class="st4" d="M535.3,166.3c-2.8,0.4-5.6,0.5-8.5,0.4c-0.8,0-1.5-1.3-2.2-2.1c-0.1-0.1,0-0.4,0-0.6c-0.3-10.4,0-10.7,10.9-9.4
	C535.5,158.4,535.5,162.2,535.3,166.3z"/>
<path class="st21" d="M547.2,166.8c-9,0-8.9,0-9-8.9c0-2.8,0.8-3.9,3.6-3.7c2.4,0.2,4.8,0,7.7,0c0,3.8,0.1,7.3-0.1,10.9
	C549.3,165.7,548.1,166.2,547.2,166.8z"/>
<path class="st3" d="M531.9,152.4c-0.4-3.4-0.5-6.6-0.5-9.8c0-0.5,0.2-1.5,0.4-1.5c3.1-0.4,6.3-0.6,9.4-0.5c0.6,0,1.6,2.6,1.6,4
	c-0.1,9.6,2.1,8.3-8.7,8.4C533.3,152.9,532.6,152.7,531.9,152.4z"/>
<path class="st4" d="M593.3,239.9c-7.8,0-7.8,0-7.8-7.5c0-0.7,0-1.3,0-2c-0.4-2.6,0.7-3.5,3.3-3.4c8.4,0.3,7.9-1.3,7.8,7.9
	C596.6,237.1,597.5,240,593.3,239.9z"/>
<path class="st4" d="M616.8,155.6c0.8-0.4,1.6-1.2,2.4-1.3c2.8-0.2,5.5-0.1,8.3-0.1c0.2,0.5,0.3,1,0.3,1.5c0,3.4,0,6.9,0,10.6
	c-3.5,0.1-7.1-0.1-10.6-0.4C616.9,162.3,616.8,159,616.8,155.6z"/>
<path class="st4" d="M615.6,166.3c-3,0.1-6,0.4-8.9,0.3c-0.7,0-1.3-1.2-2-1.9c-0.1-0.1,0-0.4,0-0.7c0.6-11.6-2.9-9.8,10.8-9
	C615.6,159.2,615.6,162.8,615.6,166.3z"/>
<path class="st22" d="M807.1,220.8c5,5.3,0.2,13.9-6,13.9c-4.1,0-8.1,0.3-12.4,0.6v-32.7c3.9,0,7.8-0.5,11.5,0.1
	c7.5,1.3,9.5,7.3,4.8,13.8c-0.3,0-0.4-0.2-0.4-0.4c0.1-0.6,0.2-1.3,0.4-1.9c2.6-5.6,1.1-8.8-5-10.1c-2.3-0.5-4.6-0.8-6.9-0.8
	c-2.3,0-4.1,0.9-3.7,3.9c0.3,2.4,0.5,4.8,0.5,7.3c-0.1,5.5-0.3,11.1-0.5,16.6c-0.1,2.2,1,2.9,3.1,2.8c2.3-0.1,4.7-0.2,7-0.2
	c6.6-0.1,9.8-4.7,7.6-10.8c-0.2-0.6-0.2-1.1-0.2-1.7C806.9,221,807.1,220.8,807.1,220.8z"/>
<path class="st16" d="M948.1,333.5c0.2-0.9,0.6-1.7,1.1-2.5c9.3-9.8,18.5-19.7,27.9-29.4c0.6-0.4,1.2-0.7,1.9-0.9
	c-4,5-8,10.1-12.5,14.8c-5.4,5.8-11.2,11.4-16.8,17.1C949.3,333,948.7,333.3,948.1,333.5z"/>
<path class="st14" d="M928.4,122.3v8c-2.5,0.1-5.1-0.1-7.6-0.3c-0.3-2.5-0.4-5.1-0.4-7.6c0.1,0,0.2,0,0.3-0.1
	C923.5,122.2,925.9,122.2,928.4,122.3z"/>
<path class="st14" d="M817.5,122c0.3,0.5,0.5,1.1,0.7,1.7c0,2.3,0,4.1,0,5.9c-2.6,0.3-5.1,0.4-7.7,0.3c-0.3-2.6-0.4-5.3-0.3-7.9
	L817.5,122z"/>
<path class="st23" d="M771.7,383.6c8.9,8.5,17.7,17.3,26.5,26.3c-1,0-2-0.4-2.9-1c-4.4-4.4-8.7-8.9-13-13.4
	c-3.5-3.5-7.1-6.9-10.6-10.5C771.5,384.8,771.6,384.3,771.7,383.6z"/>
<path class="st23" d="M817.4,121.7c-2.4,0.2-4.8,0.3-7.3,0.2c0,2.8,0,5.2,0,7.9c-0.6,0.3-1.3,0.4-1.8,0.1c-0.3-2.7-0.3-5.1-0.3-7.5
	h-7.9c3.8-2.2,4.1-5.6,3.4-9.4c0-0.2,0.4-0.4,0.9-0.4c0.2,2.7,0.2,5,0.2,7.6h7.9C814.3,120.6,815.9,121.1,817.4,121.7z"/>
<path class="st16" d="M979.5,300.8c0.6-1.9,1.4-3.7,2.4-5.4c5.1-8.6,10.2-17.3,15.4-25.8c0.3-0.4,0.7-0.7,1.2-0.8
	c-1.9,4.5-3.6,9.2-6.2,13.4C988.4,288.5,984,294.5,979.5,300.8z"/>
<path class="st16" d="M703.9,103.9c-1.8-0.8-3.5-1.9-5-3.1c-4-3.7-7.9-7.5-11.8-11.4c-1.5-1.5-2.4-1.4-3.5,0.4
	c-1.1,1.6-2.3,3-3.7,4.3c1-2.5,2.3-4.9,3.9-7.1c0.5-0.6,2.9-0.6,3.6,0C693,92.5,698.4,98.1,703.9,103.9z"/>
<path class="st24" d="M300.7,262.3c-2.8,0.3-5.7,0.4-8.5,0.3c-2,0-2.8,0.8-2.8,2.8c0,9.6,0,19.3,0.1,28.9c0,1,1.2,2,1.9,3
	c0.7-1,1.8-1.9,1.9-3c0.4-2.6,0.3-5.3,0.6-8.1c0.2,3.7,0.2,7.5,0.2,11.7h-5.1V262C292.9,262,296.7,262,300.7,262.3z"/>
<path class="st24" d="M482.5,262.3c-2.8,0.3-5.7,0.4-8.5,0.3c-2,0-2.8,0.8-2.8,2.8c0,9.8,0,19.5,0.1,29.3c0,0.9,1.3,1.8,2,2.7
	c0.6-0.9,1.6-1.7,1.8-2.7c0.3-2.7,0.3-5.5,0.5-8.5c0.2,3.7,0.2,7.5,0.2,11.7h-5.1V262C474.7,262,478.5,262,482.5,262.3z"/>
<path class="st24" d="M132.3,262.3c-2.7,0.3-5.4,0.4-8.2,0.3c-2.1-0.1-3.1,0.9-3.1,2.9c0,9.7,0,19.3,0,29c0,2,1,3,3.2,2.9
	c3.7-0.1,7.3,0,11.3,0c-2.6,0.3-5.5,0.5-8.4,0.7c-2.1,0.1-4.2,0-6.6,0v-36C124.3,262.1,128.2,262.1,132.3,262.3z"/>
<path class="st16" d="M720.2,126.9c1.8-6.4-4.2-8.4-7.2-12.1c-2.9-3.6-6.1-6.9-9.1-10.5c1.9,1.3,3.7,2.8,5.4,4.4
	c3.6,3.5,6.9,7.3,10.6,10.6C722.6,121.9,722.5,124.2,720.2,126.9z"/>
<path class="st22" d="M872.4,187.4c0,1.8,0,3.3,0,5.1h-7.7v-7c2.1,0,4.2-0.1,6.3,0.1C871.5,185.5,872,186.5,872.4,187.4
	 M868.7,191.7c0.9-0.5,2.6-1.1,2.7-1.6c0.1-1.2-0.7-3.3-1.3-3.4c-1.4-0.2-3.7,0.2-4.2,1.2C864.9,189.6,865.9,191.3,868.7,191.7
	L868.7,191.7z"/>
<path class="st23" d="M716.8,328.8c6,5.6,12,11.5,18,17.5c-1.5-0.5-3.3-0.9-4.5-2c-4.4-4.3-8.5-8.8-12.7-13.2
	C717.1,330.4,716.9,329.6,716.8,328.8z"/>
<path class="st22" d="M800.2,122.7c2.6-0.3,5.3-0.4,7.9-0.3c0,2.4,0,4.8,0,7.5c-2.6,0.3-5.3,0.4-7.9,0.3
	C800.2,127.7,800.2,125.3,800.2,122.7 M803.2,122.9c-2.6,0.6-1.9,2.7-1.7,4.3c0.1,0.6,1.3,1.5,2,1.6c1.7,0.2,3.6,0.6,3.9-2.2
	C807.7,123.8,806.4,122.8,803.2,122.9L803.2,122.9z"/>
<path class="st25" d="M567,298c1.7-1.7,4.2-3,5.6-5.1c2.8-4.2,2.2-7.7-1.4-11.6c-0.4-0.6-0.8-1.2-1-1.9c6.3,2.6,7.4,12.3,1.7,16.4
	C570.4,296.8,568.7,297.5,567,298z"/>
<path class="st22" d="M812.7,119.9c-2.6,0.3-5.3,0.4-7.9,0.3c0-2.6,0-5,0-7.7c2.7-0.3,5.3-0.4,8-0.3
	C812.7,114.8,812.7,117.2,812.7,119.9 M810.7,113.3c-0.7-0.3-1.5-0.4-2.2-0.4c-1,0.3-2.5,0.9-2.6,1.5c-0.2,1.5,0,3,0.7,4.3
	c0.4,0.7,2.3,1,3.2,0.7C812.6,118.2,811.3,115.8,810.7,113.3L810.7,113.3z"/>
<path class="st24" d="M918.3,130.2c-2.4,0-4.8-0.2-7.2-0.6c-0.3-2.7-0.4-4.9-0.6-7.2l7.3-0.4c0.1,0.1,0.2,0.1,0.5,0.5
	C918.4,125.3,918.3,127.7,918.3,130.2 M911.7,125.3c0.7,1.2,1.1,3.1,2.1,3.4s3.2-0.5,3.6-1.4c0.5-1.1-0.1-3.6-0.9-4
	C915,122.6,912.6,121.9,911.7,125.3L911.7,125.3z"/>
<path class="st24" d="M352.7,282.8c2.1-0.3,4.5-0.6,7-0.8c1.9-0.1,3.8,0.1,5.6-0.1c0.8-0.1,1.5-1.1,2.3-1.8c-0.8-0.7-1.5-2-2.4-2
	c-3.9-0.3-7.9-0.3-12.1-0.5c4.8-0.2,9.8-0.2,15-0.2v5.4C363.1,282.8,358.1,282.8,352.7,282.8z"/>
<path class="st24" d="M253.6,282.7c2.8-0.3,6-0.5,9.1-0.7c1,0.1,2,0.1,3-0.1c0.8-0.5,1.6-1.1,2.3-1.8c-0.8-0.7-1.5-1.9-2.3-2
	c-3.1-0.2-6.2-0.1-9.3-0.1c-0.9,0-1.9-0.2-2.8-0.4c4.8-0.2,9.8-0.2,15-0.2v5.4C263.7,282.7,258.8,282.7,253.6,282.7z"/>
<path class="st23" d="M761.7,373.5c3.3,2.9,6.5,6,9.8,9.4c-0.2,0.3-0.7,0.6-0.8,0.5C767.3,380.5,762.8,378.6,761.7,373.5z"/>
<path class="st23" d="M751.3,363.1c2.9,2.6,5.9,5.5,8.8,8.6C756.3,370.1,752.8,367.8,751.3,363.1z"/>
<path class="st25" d="M552.7,291.8c0.6,3.2,3.5,5.1,8.6,5.5c1.4,0.1,2.8,0.3,4.1,0.5c-3.4,1.9-6.7,0.1-10-0.9
	c-1.5-0.6-2.9-1.3-4.3-2.1C551.6,293.8,552.1,292.8,552.7,291.8z"/>
<path class="st25" d="M567.9,291.3c-0.5,2.7-3,4-6.1,3.1c-2.7-0.8-5.4-1.7-8.4-2.8c0.1-1.5,0.5-1.7,2-1c2.5,1.3,5.2,2.1,7.9,2.5
	C564.6,293.3,566.2,292,567.9,291.3z"/>
<path class="st25" d="M572.1,263.6c-1.7,0.1-3.6-0.4-5.4-0.3c-3.2,0.2-6.3,0.8-9.7,1.2c1.8-0.9,3.9-2.4,6.1-2.5
	C566,261.9,569,262.9,572.1,263.6z"/>
<path class="st23" d="M917.7,121.7c-2.4,0.3-4.8,0.5-7.2,0.6c0.2,2.3,0.3,4.5,0.4,7c-0.5-2.5-0.8-5-1-7.5c0-0.4,1.1-1.3,1.7-1.2
	C913.7,120.7,915.7,121.1,917.7,121.7z"/>
<path class="st23" d="M698.5,309.6c2.9,2.8,5.8,5.8,8.9,9c-2.5,1.6-2.8-1.2-3.8-2.2C701.6,314.4,699.9,312.1,698.5,309.6z"/>
<path class="st16" d="M860,348.8c-0.7,4.1-4.1,6-7.6,8C854.7,354.1,857.2,351.5,860,348.8z"/>
<path class="st23" d="M918.6,130.2c-0.2-2.5-0.3-5.1-0.2-7.7c0.5-0.3,1.1-0.4,1.7-0.3c0.3,2.4,0.3,4.9,0.3,7.6
	C919.9,130.1,919.2,130.3,918.6,130.2z"/>
<path class="st23" d="M838.4,445c2.1-2.6,4.4-5.3,6.9-7.9C843.2,439.7,840.9,442.4,838.4,445z"/>
<path class="st1" d="M824.5,54.9c0-0.3,0.4-0.8,0.7-0.8c6.9,0.1,13.8,0.2,20.8,0.5C839,54.9,831.9,55,824.5,54.9z"/>
<path class="st23" d="M615.9,166.3c-0.2-3.6-0.2-7.1-0.2-11c0.3-0.1,0.6,0,1,0.2c0.2,3.4,0.2,6.8,0.3,10.4
	C616.7,166.3,616.4,166.3,615.9,166.3z"/>
<path class="st25" d="M555.8,265.3c-0.2,3.5-0.6,7.2-1.1,11.1C552.5,272.9,552.9,268.3,555.8,265.3z"/>
<path class="st23" d="M813.4,425.3c2.3,1.9,4.5,4,6.6,6.2C816.1,431.5,815,428.3,813.4,425.3z"/>
<path class="st23" d="M745.3,357.1c2.1,1.7,4,3.6,5.9,5.5C748.1,362.3,745.6,361,745.3,357.1z"/>
<path class="st23" d="M800.3,412.3c2,1.6,3.9,3.3,5.7,5.2C802.5,417.8,801.3,415.2,800.3,412.3z"/>
<path class="st16" d="M888,320.7c-0.2,3.2-2.4,5-5.6,6C884.2,324.6,886,322.6,888,320.7z"/>
<path class="st25" d="M569.5,268.2c2.5-0.2,4.1-0.9,2.7-4.1c3.4,0.5,3.4,0.8,0.8,5.3C571.8,269.1,570.6,268.7,569.5,268.2z"/>
<path class="st23" d="M707.6,319.4c1.9,1.6,3.8,3.3,5.4,5.2C709.6,324.8,708.9,321.8,707.6,319.4z"/>
<path class="st16" d="M916.1,292.6c-0.5,3-2.6,4.9-5.6,6C912.2,296.5,914.1,294.5,916.1,292.6z"/>
<path class="st16" d="M876.1,332.8c-1.8,2.1-3.7,4.1-5.7,6C872.2,336.6,874.1,334.6,876.1,332.8z"/>
<path class="st23" d="M739.3,351.1c2.1,1.8,4,3.6,5.9,5.6C741.7,356.7,740.5,354,739.3,351.1z"/>
<path class="st16" d="M904.1,304.6c-1.7,2.1-3.6,4.1-5.6,6C900.2,308.6,902.1,306.5,904.1,304.6z"/>
<path class="st24" d="M204.9,282.8c0.7-0.4,1.5-0.7,2.3-0.8c4.5,0,9,0.1,13.8,0.4C215.9,282.6,210.6,282.7,204.9,282.8z"/>
<path class="st23" d="M928.3,122c-2.4,0.2-4.9,0.2-7.6,0.2C922.9,120,925.6,120.6,928.3,122z"/>
<path class="st16" d="M882,326.7c0.1,3.3-2.4,4.7-5.1,6C878.4,330.6,880.2,328.6,882,326.7z"/>
<path class="st23" d="M831.5,443.4c1.7,1.4,3.4,3.3,6.4,1.6c-0.9,0.5-2,1.6-3.1,1.5C833.2,446.5,831.3,446,831.5,443.4z"/>
<path class="st23" d="M683.7,289.4c0.7,1.4,1.4,2.7,2,4.3c-3.3-0.3-2.9-3.4-3.7-5.6C682.7,288.5,683.3,288.9,683.7,289.4z"/>
<path class="st16" d="M971.6,99.5c-0.1,3-2.4,4.2-5,5.3C968.2,102.9,969.9,101.2,971.6,99.5z"/>
<path class="st16" d="M908.8,300c0.1,2.6-1.2,4.3-4.3,4.7C905.8,303,907.2,301.4,908.8,300z"/>
<path class="st16" d="M962.9,108.1c-1.5,1.9-3.1,3.7-4.9,5.4C959.5,111.6,961.2,109.8,962.9,108.1z"/>
<path class="st23" d="M691.2,300.9c1.6,1.5,3.1,3.2,4.5,4.9C693.1,305.6,691.2,303.5,691.2,300.9z"/>
<path class="st23" d="M826.3,438.4c1.8,1.4,3.5,2.9,5,4.5C829.5,441.5,827.9,440,826.3,438.4z"/>
<path class="st23" d="M734.8,346.8c1.6,1.1,3,2.4,4.4,3.8C736.7,350.9,735.4,349.3,734.8,346.8z"/>
<path class="st23" d="M845.8,437c1.3-1.6,2.7-3.1,4.2-4.5C850.3,435.3,848.1,436.1,845.8,437z"/>
<path class="st22" d="M804.8,216.5c-2,2.7,1.4,2.7,2.2,4.1c0.2,0.2-0.1,0.4-0.4,0.4c-1.3-0.8-2.5-1.7-3.7-2.7l1.7-2.1L804.8,216.5z"
	/>
<path class="st23" d="M820.2,432.4c1.6,1.2,3,2.4,4.4,3.9C821.9,436.7,821.1,434.6,820.2,432.4z"/>
<path class="st24" d="M307.5,297.6c1.7-0.8,5.1,1.2,4.6-3.4c0.9,1.2,1.7,2.4,2.5,3.7C312.3,297.9,309.9,297.9,307.5,297.6z"/>
<path class="st25" d="M561.1,268c1.1-1.8,5.5-2.1,8.3-0.3C566.8,268,564.1,268,561.1,268z"/>
<path class="st25" d="M565.5,277c-2.6,0.2-5.1-0.2-6-3.6C561.6,274.5,563.6,275.7,565.5,277z"/>
<path class="st25" d="M556.8,278.9c2.1,0.8,4.1,1.7,6,2.7C560.7,280.9,558.7,280,556.8,278.9z"/>
<path class="st16" d="M851.9,356.8c-0.1,2.1-0.9,3.8-3.6,4C849.4,359.4,850.6,358,851.9,356.8z"/>
<path class="st16" d="M870,338.7c0.3,2.4-1,3.6-3.5,4C867.5,341.3,868.7,340,870,338.7z"/>
<path class="st16" d="M892,316.7c-1.1,1.5-2.3,2.8-3.6,4C889.5,319.2,890.7,317.9,892,316.7z"/>
<path class="st16" d="M866,342.8c0.6,2.7-1.8,3-3.6,4C863.4,345.3,864.7,344,866,342.8z"/>
<path class="st16" d="M926.1,282.6c0.7,2.7-1.7,3.1-3.6,4C923.6,285.2,924.8,283.8,926.1,282.6z"/>
<path class="st16" d="M934.1,274.5c0.2,2.3-1.2,3.5-3.5,4.1C931.6,277.1,932.8,275.8,934.1,274.5z"/>
<path class="st16" d="M847.9,360.8c0.6,2.7-1.8,3-3.6,4C845.4,363.4,846.6,362,847.9,360.8z"/>
<path class="st16" d="M920.1,288.6c-1.1,1.5-2.3,2.8-3.6,4C917.6,291.2,918.8,289.8,920.1,288.6z"/>
<path class="st23" d="M806.9,419c1.3,0.9,2.5,2,3.6,3.2c-1.7,0.2-3.3-1-3.6-2.7C806.9,419.3,806.9,419.2,806.9,419z"/>
<path class="st23" d="M850.5,432.3c0.8-1.2,1.7-2.3,2.8-3.3C854,431.3,852.4,431.9,850.5,432.3z"/>
<path class="st23" d="M713.2,325c1.3,1,2.4,2,3.5,3.2C715.4,327.3,714.3,326.2,713.2,325z"/>
<path class="st16" d="M956.9,114.2c-0.8,1.2-1.8,2.4-2.9,3.4C954.8,116.3,955.8,115.2,956.9,114.2z"/>
<path class="st16" d="M966.3,104.8c0.4,2-0.6,3.1-2.9,3.3C964.2,107,965.2,105.9,966.3,104.8z"/>
<path class="st25" d="M570.1,279c-1.6-0.4-3.1-0.9-4.6-1.6C567.2,277.8,568.7,278.3,570.1,279z"/>
<path class="st25" d="M569.4,287c2.4,1.2,1.4,2.4-0.4,3.7C569,289.4,569.1,288.2,569.4,287z"/>
<path class="st16" d="M683.8,289.2c-0.6-0.3-1.2-0.8-1.6-1.3c-0.2-0.1-0.2-0.4-0.3-0.7c-0.1-0.6-0.1-0.9-0.1-1.2
	C682.5,287,683.1,288.1,683.8,289.2z"/>
<path class="st24" d="M311.1,277.3c-0.2-2.2-0.3-4.4-0.3-6.5C311,273,311.1,275.1,311.1,277.3z"/>
<path class="st23" d="M810.7,422.8c0.9,0.6,1.8,1.3,2.6,2.1C812.4,424.3,811.5,423.6,810.7,422.8z"/>
<path class="st24" d="M294.5,285.5c1.8-0.2,3.6-0.3,5.4-0.2C298.1,285.4,296.3,285.5,294.5,285.5z"/>
<path class="st24" d="M143.3,290.6c-0.2-1.9-0.3-3.9-0.3-5.8C143.3,286.7,143.4,288.7,143.3,290.6z"/>
<path class="st23" d="M818.4,129.4c-0.2-1.8-0.3-3.7-0.2-5.5C818.4,125.7,818.4,127.5,818.4,129.4z"/>
<path class="st16" d="M936.3,272.1c-0.5,0.9-1.1,1.7-1.7,2.5C935,273.7,935.6,272.8,936.3,272.1z"/>
<path class="st23" d="M685.7,294.4c0.8,0.5,1.5,1.2,2.1,1.9C687,295.9,686.3,295.2,685.7,294.4z"/>
<path class="st16" d="M898.1,310.7c-0.4,0.8-0.9,1.5-1.6,2C896.9,311.9,897.4,311.2,898.1,310.7z"/>
<path class="st23" d="M687.9,296.9c0.8,0.6,1.4,1.4,2,2.2C689,298.5,688.4,297.7,687.9,296.9z"/>
<path class="st23" d="M681.7,286c0,0.3,0,0.6,0,1.1c-0.8-0.6-1.4-1.4-1.8-2.2c0.4,0,0.8,0.2,1.1,0.5c0,0,0,0,0,0.1
	C681.3,285.7,681.5,285.9,681.7,286C681.8,286.1,681.8,286,681.7,286z"/>
<path class="st16" d="M930.2,278.6c-0.4,0.8-0.9,1.5-1.6,2C928.9,279.8,929.5,279.1,930.2,278.6z"/>
<path class="st16" d="M896.1,312.7c-0.4,0.8-1,1.5-1.6,2C894.8,313.9,895.4,313.2,896.1,312.7z"/>
<path class="st16" d="M862,346.7c-0.4,0.8-0.9,1.5-1.6,2C860.8,348,861.3,347.3,862,346.7z"/>
<path class="st16" d="M928.1,280.6c-0.4,0.8-0.9,1.5-1.6,2C926.9,281.8,927.5,281.1,928.1,280.6z"/>
<path class="st16" d="M922.1,286.6c-0.4,0.8-0.9,1.5-1.6,2C920.9,287.8,921.5,287.1,922.1,286.6z"/>
<path class="st16" d="M894,314.6c-0.4,0.8-0.9,1.5-1.6,2C892.8,315.9,893.4,315.2,894,314.6z"/>
<path class="st16" d="M681.1,285.1c-0.3,0-0.6-0.2-1.1-0.4c-0.2-0.5-0.3-1.1-0.3-1.7C680.3,283.6,680.7,284.3,681.1,285.1z"/>
<path class="st23" d="M695.9,306.9c0.8,0.4,1.4,0.9,2,1.6C697.1,308.1,696.4,307.5,695.9,306.9z"/>
<path class="st16" d="M843.9,364.8c-0.4,0.8-0.9,1.5-1.6,2C842.7,366,843.3,365.4,843.9,364.8z"/>
<path class="st16" d="M841.9,366.8c-0.4,0.8-0.9,1.5-1.6,2C840.7,368,841.2,367.4,841.9,366.8z"/>
<path class="st24" d="M141.8,269.7c-0.6-0.9-1-1.9-1.4-2.9C141,267.7,141.5,268.6,141.8,269.7z"/>
<path class="st25" d="M554.7,276.9c0.8,0.4,1.5,0.9,2,1.6C555.9,278.1,555.3,277.6,554.7,276.9z"/>
<path class="st24" d="M486,263c-1.1,0.1-2.2,0-3.2-0.3C483.8,262.6,484.9,262.7,486,263z"/>
<path class="st25" d="M568,284.9c0.6,0.4,1.1,0.9,1.4,1.6C568.9,286.1,568.4,285.6,568,284.9z"/>
<path class="st25" d="M566.1,283.6c0.7,0.2,1.4,0.5,2,1C567.3,284.4,566.6,284,566.1,283.6z"/>
<path class="st24" d="M304.2,263c-1.1,0.1-2.2,0-3.2-0.3C302,262.6,303.1,262.7,304.2,263z"/>
<path class="st16" d="M910.1,298.6c-0.1,0.5-0.5,1-0.9,1.4C909.3,299.4,909.6,299,910.1,298.6z"/>
<path class="st24" d="M142,272.6c-0.2-0.8-0.3-1.6-0.3-2.5C142,270.9,142.1,271.8,142,272.6z"/>
<path class="st25" d="M559.5,273c-0.4-0.2-0.7-0.6-0.8-1.1C559.1,272.2,559.4,272.6,559.5,273z"/>
<path class="st24" d="M135.7,263c-0.9,0.1-1.7,0.1-2.5-0.2C134,262.7,134.9,262.8,135.7,263z"/>
<path class="st24" d="M141.3,275.3c-0.1-0.9,0-1.7,0.3-2.6C141.7,273.7,141.6,274.5,141.3,275.3z"/>
<path class="st23" d="M798.9,411c0.5,0.1,1,0.3,1.4,0.8C799.8,411.7,799.3,411.4,798.9,411z"/>
<path class="st23" d="M760.2,372.3c0.5,0,1,0.3,1.3,0.6C761,372.8,760.5,372.6,760.2,372.3z"/>
<path class="st24" d="M142.6,292.7c-0.1-0.7,0.1-1.3,0.4-1.9C143,291.5,142.9,292.1,142.6,292.7z"/>
<path class="st25" d="M559.1,271.3c-0.1-0.7,0-1.3,0.3-1.9C559.5,270.1,559.4,270.7,559.1,271.3z"/>
<path class="st24" d="M137.7,263.7c-0.4,0.1-0.9,0.1-1.2-0.2C136.9,263.4,137.3,263.4,137.7,263.7z"/>
<path class="st24" d="M303.4,290.9c0.3,0.2,0.6,0.6,0.7,0.9C303.9,291.8,303.6,291.5,303.4,290.9z"/>
<path class="st24" d="M136.5,297.3c0.3-0.3,0.6-0.6,1-0.6C137.3,297,136.9,297.3,136.5,297.3z"/>
<path class="st24" d="M137.9,296.7c0.3-0.3,0.6-0.6,1-0.7C138.7,296.4,138.3,296.6,137.9,296.7z"/>
<path class="st24" d="M310.2,291.1c-0.4-0.2-0.6-0.6-0.8-1C309.8,290.3,310.1,290.7,310.2,291.1z"/>
<path class="st24" d="M304.7,292.9c0.3,0.2,0.6,0.5,0.7,0.9C305.2,293.8,305,293.5,304.7,292.9z"/>
<path class="st24" d="M139,264.4c-0.4,0.1-0.9-0.1-1.2-0.3C138.2,264,138.7,264.1,139,264.4z"/>
<path class="st24" d="M138.7,278.8c0-0.3,0.3-0.5,0.7-0.9C139.4,278.1,139.1,278.4,138.7,278.8z"/>
<path class="st24" d="M310.8,269.8c-0.3-0.3-0.6-0.7-0.6-1.1C310.5,268.9,310.7,269.3,310.8,269.8z"/>
<path class="st24" d="M139.7,280.4c-0.4,0-0.9-0.1-1.2-0.4C138.9,280,139.4,280.1,139.7,280.4z"/>
<path class="st24" d="M140.5,266.4c-0.3-0.2-0.6-0.5-0.7-0.9C140,265.5,140.2,265.8,140.5,266.4z"/>
<path class="st23" d="M824.8,436.7c0.1-0.1,0.4,0,0.6,0.2C825.2,437.1,825,437,824.8,436.7z"/>
<path class="st23" d="M854.6,427.7c-0.2-0.2-0.2-0.4,0.2-0.5C854.9,427.4,854.9,427.6,854.6,427.7z"/>
<path class="st24" d="M140.6,295.4c-0.1-0.2,0.1-0.4,0.3-0.6C141,294.9,140.9,295.1,140.6,295.4z"/>
<path class="st24" d="M139.8,296c0-0.2,0.1-0.4,0.4-0.6C140.3,295.6,140.1,295.8,139.8,296z"/>
<path class="st24" d="M306.2,295.5c0.2,0,0.4,0.2,0.6,0.5C306.6,296,306.4,295.8,306.2,295.5z"/>
<path class="st23" d="M825.5,437.2c0.2-0.1,0.4,0,0.6,0.3C825.9,437.7,825.7,437.6,825.5,437.2z"/>
<path class="st24" d="M305.4,294.2c0.2,0,0.4,0.1,0.6,0.5C305.9,294.7,305.7,294.6,305.4,294.2z"/>
<path class="st16" d="M957.6,113.5c0.1,0.2-0.1,0.4-0.4,0.6C957.2,114,957.3,113.8,957.6,113.5z"/>
<path class="st23" d="M798.3,410.3c0.2-0.2,0.4-0.1,0.6,0.3C798.7,410.7,798.5,410.6,798.3,410.3z"/>
<path class="st24" d="M306.8,296.8c0.2,0,0.4,0.1,0.6,0.5C307.2,297.3,307,297.1,306.8,296.8z"/>
<path class="st16" d="M952.9,118.1c0.1,0.2,0,0.4-0.3,0.7C952.5,118.6,952.6,118.4,952.9,118.1z"/>
<path class="st23" d="M689.8,299.5c0.2-0.1,0.3,0.1,0.6,0.4C690.2,299.9,690.1,299.8,689.8,299.5z"/>
<path class="st23" d="M690.5,300.2c0.2-0.1,0.4,0,0.6,0.3C691,300.6,690.8,300.5,690.5,300.2z"/>
<path class="st25" d="M556.6,264.6c0.1,0.2-0.1,0.4-0.4,0.6C556.1,265,556.3,264.8,556.6,264.6z"/>
<path class="st24" d="M305.5,263.7c-0.1,0.1-0.4,0-0.7-0.2C305,263.4,305.2,263.5,305.5,263.7z"/>
<path class="st24" d="M309,281.3c-0.1-0.2,0-0.4,0.2-0.7C309.3,280.8,309.3,281,309,281.3z"/>
<path class="st24" d="M140.4,281.1c-0.2,0.1-0.4-0.1-0.6-0.4C139.9,280.7,140.1,280.8,140.4,281.1z"/>
<path class="st24" d="M309.7,280c-0.1-0.1,0-0.4,0.2-0.7C310,279.5,309.9,279.7,309.7,280z"/>
<path class="st24" d="M310.4,278.7c-0.1-0.1,0-0.4,0.2-0.7C310.7,278.1,310.6,278.4,310.4,278.7z"/>
<path class="st24" d="M309.5,267.1c-0.2,0.1-0.4-0.1-0.6-0.4C309,266.6,309.3,266.8,309.5,267.1z"/>
<path class="st24" d="M139.9,277.4c-0.1-0.2,0.1-0.4,0.4-0.7C140.3,276.9,140.2,277.1,139.9,277.4z"/>
<path class="st24" d="M140.6,276.7c-0.1-0.2,0-0.4,0.2-0.7C140.9,276.1,140.8,276.4,140.6,276.7z"/>
<path class="st24" d="M141.1,281.8c-0.2,0.1-0.4-0.1-0.6-0.4C140.6,281.3,140.8,281.5,141.1,281.8z"/>
<path class="st24" d="M310.1,267.8c-0.2,0-0.4-0.1-0.6-0.5C309.7,267.3,309.9,267.5,310.1,267.8z"/>
<path class="st25" d="M559.7,269.3c-0.1-0.2,0.1-0.4,0.4-0.6C560.1,268.9,560,269.1,559.7,269.3z"/>
<path class="st25" d="M560.3,268.7c-0.1-0.2,0.1-0.4,0.4-0.6C560.8,268.2,560.7,268.4,560.3,268.7z"/>
<path class="st24" d="M308.1,287.2c-0.2,0-0.4-0.1-0.6-0.5C307.7,286.7,307.9,286.9,308.1,287.2z"/>
<path class="st24" d="M312.2,293.8c-0.2,0-0.4-0.1-0.6-0.4C311.7,293.3,311.9,293.5,312.2,293.8z"/>
<path class="st24" d="M306.8,264.4c-0.1,0.1-0.4,0-0.7-0.2C306.3,264.1,306.5,264.1,306.8,264.4z"/>
<path class="st24" d="M311.4,292.6c-0.2,0-0.4-0.1-0.6-0.5C311,292.1,311.3,292.2,311.4,292.6z"/>
<path class="st24" d="M304.1,292.2c0.2,0,0.4,0.1,0.6,0.4C304.5,292.7,304.3,292.5,304.1,292.2z"/>
<path class="st24" d="M139.7,265.1c-0.2,0.1-0.4-0.1-0.6-0.4C139.3,264.6,139.5,264.8,139.7,265.1z"/>
<path class="st24" d="M310.9,291.8c-0.2,0-0.4-0.1-0.6-0.4C310.4,291.3,310.6,291.5,310.9,291.8z"/>
<path class="st25" d="M568.6,290.6c0.1,0.2-0.1,0.4-0.3,0.6C568.2,291.1,568.3,290.9,568.6,290.6z"/>
<path class="st24" d="M302.8,290.2c0.2,0,0.4,0.1,0.6,0.4C303.2,290.7,303,290.5,302.8,290.2z"/>
<path class="st24" d="M302.2,289.4c0.2,0,0.4,0.1,0.6,0.5C302.6,289.9,302.3,289.8,302.2,289.4z"/>
<path class="st24" d="M309.4,289.2c-0.2,0-0.4-0.1-0.6-0.5C309,288.7,309.3,288.9,309.4,289.2z"/>
<path class="st24" d="M307.5,265.1c-0.2,0.1-0.4-0.1-0.6-0.4C307,264.6,307.2,264.8,307.5,265.1z"/>
<path class="st24" d="M308.8,288.5c-0.2,0-0.4-0.1-0.6-0.4C308.4,288,308.6,288.1,308.8,288.5z"/>
<path class="st24" d="M301.4,288.2c0.2,0,0.4,0.1,0.6,0.4C301.9,288.7,301.7,288.5,301.4,288.2z"/>
<path class="st24" d="M300.8,287.5c0.2,0,0.4,0.1,0.6,0.5C301.2,287.9,301,287.8,300.8,287.5z"/>
<path class="st24" d="M141.3,294.7c-0.1-0.2,0-0.4,0.2-0.7C141.6,294.2,141.5,294.4,141.3,294.7z"/>
<path class="st24" d="M307.5,286.4c-0.2,0-0.4-0.1-0.6-0.4C307,286,307.3,286.1,307.5,286.4z"/>
<path class="st24" d="M306.4,284.1c-0.1-0.1,0-0.4,0.3-0.7C306.8,283.6,306.7,283.8,306.4,284.1z"/>
<path class="st24" d="M143,283.9c-0.2,0-0.4-0.1-0.6-0.5C142.6,283.4,142.8,283.5,143,283.9z"/>
<path class="st24" d="M308.2,265.7c-0.2,0.1-0.4-0.1-0.6-0.4C307.7,265.3,307.9,265.4,308.2,265.7z"/>
<path class="st25" d="M564.7,282.9c0.1-0.1,0.4,0,0.7,0.2C565.3,283.2,565,283.1,564.7,282.9z"/>
<path class="st24" d="M307,283.4c-0.1-0.2,0.1-0.4,0.4-0.6C307.4,282.9,307.3,283.1,307,283.4z"/>
<path class="st24" d="M142.4,283.1c-0.2,0.1-0.4-0.1-0.6-0.4C141.9,282.7,142.1,282.8,142.4,283.1z"/>
<path class="st25" d="M563.4,282.2c0.2-0.1,0.4,0,0.7,0.2C564,282.5,563.7,282.5,563.4,282.2z"/>
<path class="st24" d="M307.7,282.7c-0.1-0.2,0.1-0.4,0.4-0.6C308.1,282.2,308,282.4,307.7,282.7z"/>
<path class="st24" d="M308.8,266.4c-0.2,0.1-0.4-0.1-0.6-0.4C308.4,266,308.6,266.1,308.8,266.4z"/>
<path class="st24" d="M141.7,282.4c-0.2,0.1-0.4-0.1-0.6-0.4C141.3,282,141.5,282.1,141.7,282.4z"/>
<path class="st24" d="M308.3,282c-0.1-0.2,0.1-0.4,0.4-0.6C308.8,281.5,308.6,281.8,308.3,282z"/>
<path class="st16" d="M681.7,285.9c-0.1,0-0.4-0.1-0.6-0.4C681.3,285.5,681.5,285.6,681.7,285.9z"/>
<path class="st16" d="M126.5,277.4c2.1-0.2,4.1-0.2,6.2-0.2C131,279.4,128.8,279.2,126.5,277.4z"/>
<path class="st16" d="M132.4,267.6c-1.7,0.2-3.4,0.3-5.1,0.3C128.6,265.7,130.5,266.7,132.4,267.6z"/>
<path class="st16" d="M126.3,268.1c0.2,2.7,0.2,5.5,0.1,8.2C126.2,273.6,126.1,270.9,126.3,268.1z"/>
<path class="st16" d="M136.5,273.2c-0.4-0.7-0.7-1.5-0.7-2.4C136.1,271.5,136.4,272.3,136.5,273.2z"/>
<path class="st16" d="M135.9,274.5c-0.1-0.4-0.1-0.9,0.2-1.2C136.2,273.7,136.1,274.2,135.9,274.5z"/>
<path class="st16" d="M134.4,276.6c0-0.2,0.1-0.4,0.4-0.6C134.9,276.1,134.7,276.3,134.4,276.6z"/>
<path class="st16" d="M133.1,277.2c0-0.2,0.1-0.4,0.5-0.5C133.6,276.9,133.4,277,133.1,277.2z"/>
<path class="st16" d="M135.1,275.9c-0.1-0.1,0.1-0.4,0.4-0.7C135.5,275.4,135.4,275.6,135.1,275.9z"/>
<path class="st16" d="M135.6,269.9c-0.2,0-0.4-0.1-0.6-0.4C135.2,269.4,135.4,269.6,135.6,269.9z"/>
<path class="st16" d="M134.9,269.2c-0.1,0.1-0.4-0.1-0.7-0.4C134.4,268.7,134.6,268.9,134.9,269.2z"/>
<path class="st16" d="M133.6,268.4c-0.1,0.1-0.4,0-0.7-0.2C133.1,268,133.3,268.1,133.6,268.4z"/>
<path class="st25" d="M475.6,268.8c0.2,3.2,0.3,6.5,0.2,10.2C475.7,275.9,475.6,272.4,475.6,268.8z"/>
<path class="st25" d="M483.1,267.7c-2.1,0.2-4.1,0.3-6.2,0.3C478.9,267.7,481,267.6,483.1,267.7z"/>
<path class="st25" d="M476.7,280.2c1.6-0.2,3.3-0.3,4.9-0.2C480,280.2,478.4,280.3,476.7,280.2z"/>
<path class="st25" d="M487.5,275.2c-0.2-1-0.3-2-0.2-2.9C487.5,273.2,487.6,274.2,487.5,275.2z"/>
<path class="st25" d="M486.7,277.2c-0.1-0.5,0.1-0.9,0.3-1.3C487.1,276.4,487,276.8,486.7,277.2z"/>
<path class="st25" d="M482.6,280c0.3-0.3,0.7-0.5,1.1-0.6C483.4,279.7,483.1,279.9,482.6,280z"/>
<path class="st25" d="M484.6,279.2c0-0.2,0.1-0.4,0.4-0.6C485.1,278.8,485,279,484.6,279.2z"/>
<path class="st25" d="M485.4,278.6c-0.1-0.1,0.1-0.4,0.4-0.6C485.8,278.1,485.7,278.3,485.4,278.6z"/>
<path class="st25" d="M486,277.9c-0.1-0.1,0.1-0.4,0.4-0.6C486.5,277.4,486.3,277.6,486,277.9z"/>
<path class="st25" d="M487.2,271.2c-0.2,0-0.4-0.1-0.6-0.4C486.7,270.8,486.9,270.9,487.2,271.2z"/>
<path class="st25" d="M486.5,270.5c-0.2,0-0.4-0.1-0.5-0.4C486.2,270,486.3,270.2,486.5,270.5z"/>
<path class="st25" d="M484.5,268.4c-0.1,0.1-0.4,0-0.7-0.2C484,268.1,484.2,268.1,484.5,268.4z"/>
<path class="st16" d="M436.9,268.8c0.2,3.4,0.2,7.1,0.2,11.1c1.8,0,3.3,0,5.1,0.1c-4.9,1.7-5.8,1.1-5.8-4.1
	C436.5,273.6,436.6,271.2,436.9,268.8z"/>
<path class="st16" d="M443.7,267.7c-1.8,0.2-3.7,0.3-5.6,0.2C440,267.7,441.8,267.6,443.7,267.7z"/>
<path class="st16" d="M443.2,280c0.3-0.3,0.7-0.5,1.1-0.6C444,279.7,443.6,279.9,443.2,280z"/>
<path class="st16" d="M448.5,272.5c-0.3-0.3-0.5-0.6-0.6-1.1C448.2,271.8,448.4,272.1,448.5,272.5z"/>
<path class="st16" d="M448.1,275.9c-0.1-0.4,0-0.9,0.2-1.3C448.4,275,448.3,275.5,448.1,275.9z"/>
<path class="st16" d="M445.2,279.2c0-0.1,0.1-0.4,0.4-0.6C445.7,278.8,445.5,279,445.2,279.2z"/>
<path class="st16" d="M445.9,278.6c-0.1-0.1,0.1-0.4,0.4-0.6C446.4,278.1,446.2,278.3,445.9,278.6z"/>
<path class="st16" d="M446.6,277.9c-0.1-0.1,0.1-0.4,0.4-0.6C447,277.4,446.9,277.6,446.6,277.9z"/>
<path class="st16" d="M447.3,277.2c-0.1-0.1,0.1-0.4,0.4-0.6C447.7,276.7,447.6,276.9,447.3,277.2z"/>
<path class="st16" d="M448.7,273.9c-0.1,0-0.2-0.2-0.1-0.5c0.1-0.1,0.3,0,0.3,0.2C448.9,273.7,448.8,273.8,448.7,273.9z"/>
<path class="st16" d="M447.7,270.6c-0.2,0-0.4-0.1-0.6-0.4C447.3,270.1,447.5,270.3,447.7,270.6z"/>
<path class="st16" d="M447.1,269.9c-0.1,0-0.4-0.1-0.6-0.4C446.6,269.4,446.8,269.6,447.1,269.9z"/>
<path class="st16" d="M446.4,269.2c-0.1,0.1-0.4-0.1-0.6-0.4C445.9,268.8,446.1,268.9,446.4,269.2z"/>
<path class="st16" d="M445.1,268.4c-0.1,0.1-0.4,0-0.7-0.2C444.6,268.1,444.8,268.1,445.1,268.4z"/>
<path class="st26" d="M765.7,216.8c0.7-1.6,1.2-2.9,2.2-5.3c1.7,4.3,3,7.5,4.5,11.2h-9C764.2,220.6,764.9,218.8,765.7,216.8z"/>
<path class="st27" d="M804.7,216.1c-0.5,0.8-1.1,1.6-1.8,2.3c1.1,0.9,2.2,1.9,3.6,2.8c0.2,0.5,0.4,1.1,0.5,1.7
	c2.2,6.1-1,10.7-7.6,10.8c-2.3,0-4.7,0.1-7,0.2c-2,0.1-3.2-0.6-3.1-2.8c0.2-5.5,0.4-11.1,0.5-16.6c0-2.4-0.2-4.9-0.5-7.3
	c-0.4-2.9,1.5-3.8,3.7-3.9c2.3,0,4.6,0.3,6.9,0.8c6.1,1.3,7.6,4.5,5,10.1C804.8,214.8,804.7,215.4,804.7,216.1 M803.3,222.1
	c-0.5-0.2-0.9-0.5-1.2-0.9c-2.9-1.2-5.8-2.6-9.2,0.1c0.1,3.1,0.3,6.2,0.6,9.8c3.3,1.2,6.5,1.1,9.8-1.3c0.3-0.2,0.5-0.5,1.2-1
	c1.5-2,1.1-3.9-0.4-6.1C803.8,222.5,803.6,222.3,803.3,222.1 M800.5,216.5c0.5-0.3,0.9-0.5,1.5-0.7c0.5-0.4,1.2-0.8,1.3-1.3
	c0.9-2.8,0.6-5.5-1.7-7.5c-2.5-2.2-5.4-1.5-8.5,0c0.1,3.2,0.2,6.4,0.6,10C795.9,216.8,798,216.7,800.5,216.5L800.5,216.5z"/>
<path class="st8" d="M868.4,191.7c-2.5-0.5-3.5-2.2-2.5-3.9c0.5-0.9,2.8-1.4,4.2-1.2c0.6,0.1,1.4,2.2,1.3,3.4
	C871.3,190.7,869.6,191.2,868.4,191.7z"/>
<path class="st8" d="M803.5,122.9c2.9-0.2,4.2,0.9,3.9,3.7c-0.2,2.8-2.2,2.4-3.9,2.2c-0.8-0.1-1.9-1-2-1.6
	C801.4,125.6,800.6,123.5,803.5,122.9z"/>
<path class="st8" d="M810.9,113.5c0.4,2.3,1.7,4.7-1,5.9c-0.9,0.4-2.8,0-3.2-0.7c-0.7-1.3-1-2.8-0.7-4.3c0.1-0.6,1.6-1.2,2.6-1.5
	C809.3,112.9,810.2,113.1,810.9,113.5z"/>
<path class="st8" d="M911.7,125c0.9-3.1,3.3-2.4,4.8-1.7c0.8,0.4,1.3,2.9,0.9,4c-0.4,0.9-2.6,1.8-3.6,1.4S912.4,126.5,911.7,125z"/>
<path class="st22" d="M793.5,206.5c2.8-1.1,5.7-1.7,8.1,0.4c2.3,2,2.6,4.7,1.7,7.5c-0.2,0.5-0.9,0.9-1.6,1.2
	c-0.2-0.2-0.4-0.5-0.3-0.8c1.2-2.8,1.4-5.2-1.3-7.3C797.9,207.1,795.7,206.7,793.5,206.5z"/>
<path class="st28" d="M793.2,230.7c-0.1-3.1-0.3-6.2-0.1-9.5c0.2-0.1,0.3,0,0.3,0.3c0,3.2,0,6.1,0,9.1
	C793.3,230.6,793.2,230.7,793.2,230.7z"/>
<path class="st28" d="M802.9,230c-2.9,2.3-6.1,2.3-9.6,0.9c-0.1-0.2,0-0.3,0.3-0.3c3.3-0.3,6.1-0.5,9.1-0.7
	C802.8,229.9,802.9,230,802.9,230z"/>
<path class="st28" d="M793.3,221c2.9-2.4,5.8-1.1,8.8,0.5c0,0.3-0.1,0.4-0.3,0.4c-2.9-0.3-5.6-0.5-8.3-0.7
	C793.4,221.2,793.3,221.1,793.3,221z"/>
<path class="st28" d="M804.2,223c1.3,1.9,1.7,3.8-0.1,5.9c-0.3,0.1-0.4-0.1-0.3-0.4c0.1-1.9,0.1-3.6,0.2-5.4
	C804.1,223.1,804.2,223,804.2,223z"/>
<path class="st22" d="M793.6,216.8c-0.1-0.2,0.1-0.2,0.6-0.3c0.5-0.1,1-0.1,1.4,0c0.8,0,1.3,0,2-0.1c0.5,0,0.8,0,1.3,0
	c0.6,0.1,0.9,0.1,1.2,0.2C798,216.7,795.9,216.8,793.6,216.8z"/>
<path class="st28" d="M804,229.1c-0.2,0.4-0.5,0.7-0.9,0.9c-0.2,0.1-0.3-0.1-0.2-0.3c0.2-0.3,0.5-0.6,0.9-0.9L804,229.1z"/>
<path class="st28" d="M802.2,221.7c0.4,0.1,0.8,0.3,1.2,0.6c0.1,0.2,0,0.3-0.2,0.3c-0.4-0.2-0.8-0.4-1.1-0.7L802.2,221.7z"/>
<path class="st28" d="M803.5,222.4c0.3,0.1,0.5,0.2,0.6,0.5c0.1,0.1,0,0.2-0.2,0.2c-0.2-0.1-0.4-0.3-0.6-0.5
	C803.3,222.6,803.4,222.5,803.5,222.4z"/>
<path class="st29" d="M795.6,216.5c0.5-0.2,1.1-0.3,1.7-0.2C796.8,216.4,796.2,216.5,795.6,216.5z"/>
</svg>
